<svg version="1.1" xmlns="http://www.w3.org/2000/svg" viewBox="0 0 4921.241946126723 3222.8889783276636" width="4921.241946126723" height="3222.8889783276636">
  <!-- svg-source:excalidraw -->
  
  <defs>
    <style class="style-fonts">
      @font-face {
        font-family: "Virgil";
        src: url("https://excalidraw.com/Virgil.woff2");
      }
      @font-face {
        font-family: "Cascadia";
        src: url("https://excalidraw.com/Cascadia.woff2");
      }
    </style>
    
  </defs>
  <rect x="0" y="0" width="4921.241946126723" height="3222.8889783276636" fill="#ffffff"></rect><g stroke-linecap="round" transform="translate(380.58670315548204 433.994285296439) rotate(0 151.5 77.5)"><path d="M89.02 7.4 C102.92 2.87, 123.15 1.02, 140.45 0.15 C157.75 -0.72, 176.14 -0.25, 192.84 2.17 C209.54 4.59, 226.84 9.34, 240.67 14.67 C254.5 20, 266.34 26.96, 275.84 34.15 C285.34 41.34, 293.36 49.16, 297.66 57.82 C301.97 66.47, 303.41 77.37, 301.66 86.09 C299.9 94.81, 294.49 102.4, 287.16 110.14 C279.82 117.89, 269.87 126.1, 257.65 132.56 C245.44 139.02, 229.54 145.28, 213.86 148.89 C198.18 152.49, 180.84 153.59, 163.57 154.19 C146.3 154.79, 127.08 154.68, 110.27 152.5 C93.45 150.33, 76.51 146.24, 62.7 141.13 C48.89 136.01, 37.14 129.19, 27.39 121.81 C17.64 114.43, 8.59 105.48, 4.22 96.82 C-0.14 88.16, -0.5 78.66, 1.19 69.85 C2.88 61.03, 7.04 51.86, 14.36 43.9 C21.67 35.95, 31.46 28.44, 45.09 22.12 C58.72 15.8, 86.2 8.76, 96.13 5.99 C106.06 3.21, 103.63 4.33, 104.68 5.48 M169.9 0.63 C186.21 0.58, 205.16 4.99, 220.46 8.92 C235.76 12.85, 249.89 17.99, 261.69 24.21 C273.5 30.43, 284.43 38.12, 291.3 46.26 C298.17 54.39, 301.91 63.82, 302.92 73 C303.94 82.19, 302.67 92.94, 297.38 101.35 C292.1 109.75, 281.88 116.58, 271.19 123.43 C260.5 130.28, 247.8 137.37, 233.24 142.46 C218.68 147.54, 200.88 151.78, 183.82 153.94 C166.76 156.11, 148.07 156.84, 130.87 155.44 C113.67 154.05, 95.48 149.73, 80.59 145.58 C65.7 141.42, 52.93 136.81, 41.51 130.5 C30.1 124.19, 19.03 115.92, 12.11 107.71 C5.18 99.49, 0.86 90.13, -0.02 81.2 C-0.91 72.26, 1.8 62.34, 6.8 54.08 C11.8 45.82, 19.61 38.84, 29.99 31.62 C40.37 24.4, 54.25 15.82, 69.08 10.75 C83.92 5.67, 102.03 2.96, 118.98 1.17 C135.93 -0.63, 162.32 -0.4, 170.79 -0.01 C179.25 0.37, 169.99 2.34, 169.77 3.49" stroke="#1e1e1e" stroke-width="1" fill="none"></path></g><g transform="translate(458.58670315548204 472.994285296439) rotate(0 43.44996643066406 12.5)"><text x="0" y="0" font-family="Virgil, Segoe UI Emoji" font-size="20px" fill="#1e1e1e" text-anchor="start" style="white-space: pre;" direction="ltr" dominant-baseline="text-before-edge">Repo Git</text></g><g stroke-linecap="round" transform="translate(314.58670315548204 298.994285296439) rotate(0 229 177)"><path d="M32 0 M32 0 C131.59 -0.7, 232.3 -1, 426 0 M32 0 C179.23 1.33, 325.48 1.28, 426 0 M426 0 C447.09 0.21, 457.85 10.31, 458 32 M426 0 C445.6 1.79, 456.85 8.4, 458 32 M458 32 C456.32 129.44, 458.29 228.96, 458 322 M458 32 C458.74 90.73, 459.61 149.83, 458 322 M458 322 C458.44 343.92, 448.11 355.95, 426 354 M458 322 C456 342.24, 446.72 354.02, 426 354 M426 354 C269.85 354.36, 113.75 354.93, 32 354 M426 354 C332.06 352.02, 237.9 351.92, 32 354 M32 354 C10.98 352.28, -1.86 342.73, 0 322 M32 354 C11.29 354.51, -1.93 342.94, 0 322 M0 322 C1.68 264.26, -0.55 206.51, 0 32 M0 322 C1.62 213.62, 2 106.13, 0 32 M0 32 C-1.75 9.81, 12.35 1.57, 32 0 M0 32 C-1.99 10.36, 12.94 -2.23, 32 0" stroke="#e03131" stroke-width="1" fill="none"></path></g><g transform="translate(349.58670315548204 316.994285296439) rotate(0 193.10983276367188 25)"><text x="0" y="0" font-family="Virgil, Segoe UI Emoji" font-size="20px" fill="#e03131" text-anchor="start" style="white-space: pre;" direction="ltr" dominant-baseline="text-before-edge">Serveur Herbergeur: Github, Gitlab CI, </text><text x="0" y="25" font-family="Virgil, Segoe UI Emoji" font-size="20px" fill="#e03131" text-anchor="start" style="white-space: pre;" direction="ltr" dominant-baseline="text-before-edge">AzureDevops</text></g><g transform="translate(402.58670315548204 506.994285296439) rotate(0 123.66992950439453 12.5)"><text x="0" y="0" font-family="Virgil, Segoe UI Emoji" font-size="20px" fill="#1e1e1e" text-anchor="start" style="white-space: pre;" direction="ltr" dominant-baseline="text-before-edge">java_advanced_202307</text></g><g stroke-linecap="round" transform="translate(336.58670315548204 818.994285296439) rotate(0 209.5 132.5)"><path d="M32 0 M32 0 C168.01 1.33, 303.12 2.58, 387 0 M32 0 C103.98 -0.19, 175.95 -0.13, 387 0 M387 0 C408.34 1.89, 417.04 9.73, 419 32 M387 0 C408.82 0.02, 418.45 12.09, 419 32 M419 32 C420.52 99.49, 417.76 170.85, 419 233 M419 32 C420.09 76.5, 419.92 121.36, 419 233 M419 233 C417.38 256.25, 409.71 265.66, 387 265 M419 233 C417.09 256.53, 408.24 264.08, 387 265 M387 265 C267.66 266.14, 147.27 267.37, 32 265 M387 265 C312.93 266.48, 240.01 266.67, 32 265 M32 265 C12.22 266.1, 1.11 252.73, 0 233 M32 265 C8.45 263.68, -1.9 253.33, 0 233 M0 233 C1.47 168.46, 0.96 100.4, 0 32 M0 233 C-0.03 185.61, 0.73 138.77, 0 32 M0 32 C1.19 11.67, 9.42 -1.44, 32 0 M0 32 C-0.76 9.02, 9.54 0.97, 32 0" stroke="#1e1e1e" stroke-width="1" fill="none"></path></g><g transform="translate(386.58670315548204 839.994285296439) rotate(0 107.82991027832031 12.5)"><text x="0" y="0" font-family="Virgil, Segoe UI Emoji" font-size="20px" fill="#1e1e1e" text-anchor="start" style="white-space: pre;" direction="ltr" dominant-baseline="text-before-edge">Matthias Workstation</text></g><g stroke-linecap="round" transform="translate(1000.586703155482 647.994285296439) rotate(0 422.5 215)"><path d="M32 0 M32 0 C261.56 -1.09, 489.67 -2.07, 813 0 M32 0 C240.69 1.81, 448.8 1.55, 813 0 M813 0 C833.91 -0.91, 844.37 9.97, 845 32 M813 0 C833.48 -1.24, 845.12 10.49, 845 32 M845 32 C845.62 124.67, 845.82 219.07, 845 398 M845 32 C846.56 113.18, 846.51 193.11, 845 398 M845 398 C845.22 419.93, 833.88 430.84, 813 430 M845 398 C844.6 420.89, 833.86 427.73, 813 430 M813 430 C543.8 430.12, 273.7 430.1, 32 430 M813 430 C502.19 432.45, 191.61 432.62, 32 430 M32 430 C9.96 430.27, -1.38 420.13, 0 398 M32 430 C12.65 428.7, -0.11 418.53, 0 398 M0 398 C1.42 303.72, 1.74 209.45, 0 32 M0 398 C1.79 308.71, 1.59 220.49, 0 32 M0 32 C1.36 10.75, 8.68 1.2, 32 0 M0 32 C0.51 10.52, 10.95 -1.45, 32 0" stroke="#1e1e1e" stroke-width="1" fill="none"></path></g><g transform="translate(1030.5867031554822 665.994285296439) rotate(0 105.82990264892578 12.5)"><text x="0" y="0" font-family="Virgil, Segoe UI Emoji" font-size="20px" fill="#1e1e1e" text-anchor="start" style="white-space: pre;" direction="ltr" dominant-baseline="text-before-edge">Stagiaire workstation</text></g><g stroke-linecap="round" transform="translate(363.08670315548204 891.494285296439) rotate(0 151.5 77.5)"><path d="M92.51 6.96 C106.71 2.49, 126.24 0.3, 143.3 -0.19 C160.36 -0.68, 178.34 1.54, 194.85 4.01 C211.37 6.47, 228.61 9.52, 242.39 14.6 C256.17 19.68, 268.05 27.13, 277.54 34.5 C287.04 41.88, 295.27 50.18, 299.37 58.86 C303.46 67.54, 304.04 77.58, 302.12 86.58 C300.2 95.59, 295.58 105.16, 287.84 112.89 C280.11 120.62, 268.34 127.02, 255.7 132.95 C243.07 138.88, 227.8 144.76, 212.05 148.46 C196.3 152.16, 178.7 154.69, 161.23 155.18 C143.76 155.66, 124.06 154.04, 107.23 151.36 C90.39 148.67, 74.08 144.23, 60.23 139.06 C46.37 133.89, 33.3 127.47, 24.1 120.34 C14.89 113.2, 8.83 104.84, 5.01 96.25 C1.2 87.66, -0.62 77.88, 1.21 68.81 C3.03 59.75, 8.18 49.86, 15.94 41.87 C23.7 33.88, 34.35 27.05, 47.76 20.89 C61.16 14.74, 87.32 7.24, 96.37 4.92 C105.42 2.6, 101.33 5.84, 102.05 6.97 M92.17 4.81 C106.41 0.64, 125.98 1.05, 143.29 0.73 C160.6 0.4, 179.62 0.38, 196.03 2.85 C212.44 5.32, 227.82 10.19, 241.74 15.54 C255.66 20.88, 269.95 27.5, 279.55 34.95 C289.14 42.39, 295.57 51.34, 299.32 60.18 C303.07 69.02, 304.36 79.35, 302.05 87.98 C299.75 96.62, 293.34 104.56, 285.5 112 C277.66 119.44, 267.31 126.25, 255.01 132.63 C242.7 139, 227.56 146.69, 211.66 150.27 C195.76 153.85, 176.76 153.95, 159.63 154.1 C142.49 154.26, 125.27 153.55, 108.85 151.21 C92.44 148.87, 75.16 145.53, 61.14 140.08 C47.12 134.62, 34.35 125.87, 24.73 118.47 C15.11 111.07, 7.14 104.23, 3.42 95.68 C-0.3 87.14, 0.01 76.19, 2.4 67.19 C4.78 58.19, 10.02 49.27, 17.75 41.68 C25.48 34.08, 36.56 27.51, 48.76 21.59 C60.96 15.68, 83.61 8.68, 90.95 6.19 C98.3 3.71, 91.48 5.59, 92.83 6.68" stroke="#1e1e1e" stroke-width="1" fill="none"></path></g><g transform="translate(399.58670315548204 958.994285296439) rotate(0 123.66992950439453 12.5)"><text x="0" y="0" font-family="Virgil, Segoe UI Emoji" font-size="20px" fill="#1e1e1e" text-anchor="start" style="white-space: pre;" direction="ltr" dominant-baseline="text-before-edge">java_advanced_202307</text></g><g stroke-linecap="round"><g transform="translate(501.58670315548204 929.994285296439) rotate(0 8.5 -178.5)"><path d="M-0.06 -0.98 C2.83 -60.37, 13.89 -296.56, 16.61 -356.02 M-1.54 1.12 C1.2 -58.61, 12.06 -297.98, 15.45 -357.64" stroke="#e03131" stroke-width="1" fill="none"></path></g><g transform="translate(501.58670315548204 929.994285296439) rotate(0 8.5 -178.5)"><path d="M22.65 -329.62 C23.7 -337.15, 18.65 -344.89, 14.49 -356.15 M23.38 -329.37 C21.88 -339.15, 17.49 -350.72, 16.03 -357.23" stroke="#e03131" stroke-width="1" fill="none"></path></g><g transform="translate(501.58670315548204 929.994285296439) rotate(0 8.5 -178.5)"><path d="M2.16 -330.65 C8.19 -337.92, 8.15 -345.41, 14.49 -356.15 M2.88 -330.4 C8.85 -339.83, 11.93 -351.02, 16.03 -357.23" stroke="#e03131" stroke-width="1" fill="none"></path></g></g><mask></mask><g transform="translate(531.586703155482 710.994285296439) rotate(0 38.8299560546875 12.5)"><text x="0" y="0" font-family="Virgil, Segoe UI Emoji" font-size="20px" fill="#e03131" text-anchor="start" style="white-space: pre;" direction="ltr" dominant-baseline="text-before-edge">git push</text></g><g stroke-linecap="round"><g transform="translate(632.586703155482 556.994285296439) rotate(0 219 134.5)"><path d="M-0.67 0.83 C72.36 45.91, 366.11 224.6, 439.15 269.26 M1.18 0.22 C74.07 45.02, 366.23 222.31, 438.8 267.28" stroke="#e03131" stroke-width="1" fill="none"></path></g><g transform="translate(632.586703155482 556.994285296439) rotate(0 219 134.5)"><path d="M410.79 263.22 C420.93 263.02, 431.31 266.29, 440.17 268.73 M409.31 261.5 C418.94 262.37, 426.5 265.2, 439.18 267.67" stroke="#e03131" stroke-width="1" fill="none"></path></g><g transform="translate(632.586703155482 556.994285296439) rotate(0 219 134.5)"><path d="M421.5 245.72 C427.41 252.1, 433.72 262, 440.17 268.73 M420.03 244 C426.32 250.12, 430.63 258.26, 439.18 267.67" stroke="#e03131" stroke-width="1" fill="none"></path></g></g><mask></mask><g stroke-linecap="round" transform="translate(1040.0867031554822 789.494285296439) rotate(0 151.5 77.5)"><path d="M204.12 5.9 C220.19 7.65, 236.48 12.54, 249.86 18.21 C263.25 23.89, 275.92 32.28, 284.41 39.94 C292.9 47.61, 298.16 55.56, 300.82 64.21 C303.47 72.85, 303.48 82.86, 300.32 91.8 C297.16 100.75, 290.54 110.25, 281.85 117.88 C273.16 125.5, 261.66 132.1, 248.18 137.58 C234.7 143.05, 217.26 147.75, 200.95 150.71 C184.63 153.67, 167.54 155.42, 150.31 155.34 C133.08 155.25, 113.85 153.41, 97.54 150.21 C81.24 147.01, 65.41 141.81, 52.48 136.15 C39.55 130.48, 28.47 123.77, 19.97 116.23 C11.47 108.68, 4.51 99.61, 1.48 90.88 C-1.55 82.15, -1.47 72.82, 1.77 63.86 C5.01 54.91, 11.96 44.99, 20.91 37.16 C29.86 29.34, 42.12 22.39, 55.47 16.9 C68.82 11.41, 84.63 7.16, 101.03 4.24 C117.43 1.31, 136.04 -0.83, 153.89 -0.64 C171.73 -0.44, 198.35 3.98, 208.11 5.41 C217.87 6.84, 213.16 6.69, 212.45 7.95 M137.15 1.38 C153.45 -0.79, 172.4 -0.78, 188.85 1.29 C205.3 3.36, 221.46 8.57, 235.86 13.8 C250.26 19.03, 264.81 25.69, 275.24 32.67 C285.67 39.65, 294.11 47.41, 298.45 55.68 C302.78 63.95, 302.83 73.27, 301.27 82.27 C299.72 91.27, 296.09 101.61, 289.14 109.67 C282.19 117.72, 271.77 124.29, 259.56 130.62 C247.35 136.95, 231.26 143.48, 215.89 147.64 C200.52 151.8, 184.11 154.73, 167.32 155.59 C150.53 156.45, 131.79 155.15, 115.17 152.79 C98.54 150.44, 81.99 146.35, 67.57 141.46 C53.14 136.58, 38.69 130.79, 28.62 123.47 C18.55 116.15, 11.91 105.98, 7.15 97.53 C2.38 89.08, -1.01 81.57, 0.01 72.76 C1.03 63.95, 6.1 52.86, 13.25 44.66 C20.41 36.45, 31.02 29.73, 42.93 23.52 C54.84 17.31, 69.15 11.05, 84.7 7.41 C100.25 3.76, 127.5 2.8, 136.21 1.65 C144.91 0.49, 136.5 -0.37, 136.93 0.47" stroke="#1e1e1e" stroke-width="1" fill="none"></path></g><g transform="translate(1076.5867031554822 856.994285296439) rotate(0 123.66992950439453 12.5)"><text x="0" y="0" font-family="Virgil, Segoe UI Emoji" font-size="20px" fill="#1e1e1e" text-anchor="start" style="white-space: pre;" direction="ltr" dominant-baseline="text-before-edge">java_advanced_202307</text></g><g transform="translate(830.586703155482 620.994285296439) rotate(0 59.61994934082031 25)"><text x="0" y="0" font-family="Virgil, Segoe UI Emoji" font-size="20px" fill="#e03131" text-anchor="start" style="white-space: pre;" direction="ltr" dominant-baseline="text-before-edge">git clone (1)</text><text x="0" y="25" font-family="Virgil, Segoe UI Emoji" font-size="20px" fill="#e03131" text-anchor="start" style="white-space: pre;" direction="ltr" dominant-baseline="text-before-edge">git pull (2+)</text></g><g stroke-linecap="round" transform="translate(1381.5867031554822 782.994285296439) rotate(0 181 79.5)"><path d="M134.85 1.66 C152.22 -1.84, 175.72 -1.56, 195.42 -0.64 C215.11 0.28, 235.29 3.7, 253.03 7.16 C270.77 10.62, 287.37 14.58, 301.85 20.13 C316.33 25.68, 330.23 33, 339.92 40.46 C349.61 47.92, 356.78 56.42, 359.99 64.88 C363.21 73.34, 362.28 82.71, 359.18 91.2 C356.09 99.7, 350.5 108.31, 341.4 115.88 C332.3 123.44, 319.04 130.59, 304.59 136.58 C290.14 142.56, 272.72 148, 254.72 151.79 C236.71 155.58, 216.12 158.66, 196.57 159.32 C177.02 159.99, 156.25 157.85, 137.4 155.77 C118.55 153.7, 99.77 151.38, 83.45 146.88 C67.13 142.38, 51.83 135.56, 39.48 128.76 C27.13 121.97, 15.98 114.37, 9.36 106.12 C2.73 97.87, -0.2 87.92, -0.27 79.27 C-0.34 70.61, 2.71 62.15, 8.93 54.18 C15.16 46.21, 25 38.09, 37.07 31.44 C49.14 24.78, 62.58 19.16, 81.34 14.25 C100.1 9.33, 135.44 4.17, 149.6 1.97 C163.76 -0.23, 165.53 0.03, 166.29 1.05 M119.25 4.73 C135.9 0.4, 159.02 -0.89, 178.92 -1.2 C198.81 -1.51, 220.28 -0.12, 238.63 2.88 C256.98 5.87, 273.61 11.6, 289 16.75 C304.38 21.9, 319.81 26.67, 330.93 33.77 C342.05 40.87, 350.47 50.64, 355.71 59.33 C360.94 68.02, 363.91 77.18, 362.34 85.91 C360.78 94.64, 353.95 103.74, 346.32 111.71 C338.69 119.69, 329.51 127.62, 316.58 133.76 C303.65 139.89, 285.89 144.64, 268.76 148.53 C251.62 152.42, 232.95 155.26, 213.76 157.09 C194.56 158.93, 172.94 160.56, 153.6 159.54 C134.26 158.53, 114.88 155.27, 97.71 151 C80.55 146.74, 64.21 140.62, 50.63 133.93 C37.05 127.23, 24.57 118.58, 16.25 110.83 C7.94 103.08, 2.61 95.53, 0.73 87.44 C-1.15 79.34, 0.44 70.9, 4.97 62.26 C9.5 53.62, 17.33 43.12, 27.9 35.6 C38.48 28.08, 53.06 22.25, 68.43 17.13 C83.81 12.01, 111.18 6.91, 120.15 4.87 C129.12 2.84, 121.05 3.71, 122.26 4.94" stroke="#2f9e44" stroke-width="1" fill="none"></path></g><g transform="translate(1447.5867031554822 835.994285296439) rotate(0 96.89990997314453 12.5)"><text x="0" y="0" font-family="Virgil, Segoe UI Emoji" font-size="20px" fill="#2f9e44" text-anchor="start" style="white-space: pre;" direction="ltr" dominant-baseline="text-before-edge">stagiaire workspace</text></g><g stroke-linecap="round"><g transform="translate(1261.5867031554822 825.994285296439) rotate(0 81.5 2)"><path d="M-0.16 -0.07 C27.2 0.67, 136.17 3.83, 163.21 4.65 M-1.71 -1.15 C25.59 -0.78, 134.67 2.18, 162.37 2.87" stroke="#2f9e44" stroke-width="1" fill="none"></path></g><g transform="translate(1261.5867031554822 825.994285296439) rotate(0 81.5 2)"><path d="M133.81 12.74 C141.25 8.78, 147.87 8.47, 161.75 1.31 M133.9 12.45 C140.48 9.24, 148.53 7.24, 163.16 3.11" stroke="#2f9e44" stroke-width="1" fill="none"></path></g><g transform="translate(1261.5867031554822 825.994285296439) rotate(0 81.5 2)"><path d="M134.34 -7.77 C141.71 -7.22, 148.2 -3, 161.75 1.31 M134.44 -8.06 C140.95 -6.19, 148.86 -3.09, 163.16 3.11" stroke="#2f9e44" stroke-width="1" fill="none"></path></g></g><mask></mask><g transform="translate(1305.5867031554822 791.994285296439) rotate(0 20.179977416992188 12.5)"><text x="0" y="0" font-family="Virgil, Segoe UI Emoji" font-size="20px" fill="#2f9e44" text-anchor="start" style="white-space: pre;" direction="ltr" dominant-baseline="text-before-edge">copy</text></g><g stroke-linecap="round" transform="translate(10 10) rotate(0 1017.1184007078443 611.3250491301035)"><path d="M32 0 M32 0 C634.43 5.17, 1235.49 5.12, 2002.24 0 M32 0 C498.08 -2.11, 964.54 -2.13, 2002.24 0 M2002.24 0 C2023.01 -0.89, 2033.08 11.44, 2034.24 32 M2002.24 0 C2023.72 1.92, 2034.5 10.02, 2034.24 32 M2034.24 32 C2035.24 399.35, 2034.5 766.47, 2034.24 1190.65 M2034.24 32 C2034.81 308.34, 2035.13 583.84, 2034.24 1190.65 M2034.24 1190.65 C2034.9 1211.56, 2024.49 1222.79, 2002.24 1222.65 M2034.24 1190.65 C2033.96 1210.59, 2025.26 1220.51, 2002.24 1222.65 M2002.24 1222.65 C1469.74 1224.53, 937.48 1224.76, 32 1222.65 M2002.24 1222.65 C1540.37 1225.11, 1077.69 1224.59, 32 1222.65 M32 1222.65 C9.44 1221.13, 1.91 1210.86, 0 1190.65 M32 1222.65 C10.53 1222.04, -0.88 1211.88, 0 1190.65 M0 1190.65 C2.02 932.52, 2.77 675.53, 0 32 M0 1190.65 C-2.72 840.77, -3.28 491.46, 0 32 M0 32 C-0.83 9.79, 12.32 1.47, 32 0 M0 32 C1.21 10.71, 9.68 1.85, 32 0" stroke="#f08c00" stroke-width="1" fill="none"></path></g><g transform="translate(87.99664419935812 48.48440044824957) rotate(0 411.1738586425781 22.5)"><text x="0" y="0" font-family="Virgil, Segoe UI Emoji" font-size="36px" fill="#f08c00" text-anchor="start" style="white-space: pre;" direction="ltr" dominant-baseline="text-before-edge">Git/Github mode d'emploi pendant la formation</text></g><g stroke-linecap="round" transform="translate(28.972156697140917 1401.2914911236821) rotate(0 865.3411471307154 616.595092657087)"><path d="M32 0 M32 0 C505.45 -4.93, 979.14 -5.2, 1698.68 0 M32 0 C408.53 5.26, 785.25 4.68, 1698.68 0 M1698.68 0 C1718.48 -0.54, 1731.26 9.66, 1730.68 32 M1698.68 0 C1721.74 -0.91, 1730.4 9.18, 1730.68 32 M1730.68 32 C1733.98 294.92, 1734.74 557.06, 1730.68 1201.19 M1730.68 32 C1728.04 312.67, 1728.23 593.68, 1730.68 1201.19 M1730.68 1201.19 C1732.16 1222.67, 1718.92 1234.89, 1698.68 1233.19 M1730.68 1201.19 C1731.59 1224.08, 1718.25 1233.5, 1698.68 1233.19 M1698.68 1233.19 C1310.39 1239.5, 922.66 1239.1, 32 1233.19 M1698.68 1233.19 C1235.3 1232.99, 771.83 1232.95, 32 1233.19 M32 1233.19 C8.81 1234.26, 0.48 1224.38, 0 1201.19 M32 1233.19 C8.7 1233.89, 0.69 1221.48, 0 1201.19 M0 1201.19 C2.57 809.62, 3 416.8, 0 32 M0 1201.19 C-3.12 943.54, -3.51 685.75, 0 32 M0 32 C-1.22 12.55, 10.67 1.34, 32 0 M0 32 C1.55 12.69, 11.28 1.81, 32 0" stroke="#1e1e1e" stroke-width="1" fill="none"></path></g><g transform="translate(128.0489750044335 1468.748048269073) rotate(0 118.78194427490234 22.5)"><text x="0" y="0" font-family="Virgil, Segoe UI Emoji" font-size="36px" fill="#1e1e1e" text-anchor="start" style="white-space: pre;" direction="ltr" dominant-baseline="text-before-edge">Java classes</text></g><g stroke-linecap="round" transform="translate(305.8595246483647 1560.7265019082865) rotate(0 325.6942780905738 339.2982159960769)"><path d="M32 0 M32 0 C223.68 1.16, 415.84 1.65, 619.39 0 M32 0 C247.81 -1.75, 463.06 -1.82, 619.39 0 M619.39 0 C641.63 -0.32, 651.89 11.7, 651.39 32 M619.39 0 C642.58 -1.11, 653.2 10.29, 651.39 32 M651.39 32 C653.25 245.57, 652.94 458.71, 651.39 646.6 M651.39 32 C652.78 214.88, 652.77 397.61, 651.39 646.6 M651.39 646.6 C652.09 668.19, 640.96 677.41, 619.39 678.6 M651.39 646.6 C649.14 666.09, 642.01 679.39, 619.39 678.6 M619.39 678.6 C487.24 677.88, 354.9 677.7, 32 678.6 M619.39 678.6 C428.32 677.79, 238.09 678.06, 32 678.6 M32 678.6 C10.49 679.35, -0.9 668.14, 0 646.6 M32 678.6 C11.1 678.48, 1.43 667.06, 0 646.6 M0 646.6 C-0.63 519.33, -1.72 391.3, 0 32 M0 646.6 C-0.03 459.05, 0.35 270.77, 0 32 M0 32 C-1.84 11.48, 9.88 -0.77, 32 0 M0 32 C1.48 11.34, 10.09 -2.2, 32 0" stroke="#1971c2" stroke-width="1" fill="none"></path></g><g transform="translate(355.47388642137594 1602.3385472662962) rotate(0 198.93594360351562 112.5)"><text x="0" y="0" font-family="Virgil, Segoe UI Emoji" font-size="36px" fill="#1971c2" text-anchor="start" style="white-space: pre;" direction="ltr" dominant-baseline="text-before-edge">class Movie</text><text x="0" y="45" font-family="Virgil, Segoe UI Emoji" font-size="36px" fill="#1971c2" text-anchor="start" style="white-space: pre;" direction="ltr" dominant-baseline="text-before-edge">- attributes (fields)</text><text x="0" y="90" font-family="Virgil, Segoe UI Emoji" font-size="36px" fill="#1971c2" text-anchor="start" style="white-space: pre;" direction="ltr" dominant-baseline="text-before-edge">- constructor(s)</text><text x="0" y="135" font-family="Virgil, Segoe UI Emoji" font-size="36px" fill="#1971c2" text-anchor="start" style="white-space: pre;" direction="ltr" dominant-baseline="text-before-edge">- getters and setters</text><text x="0" y="180" font-family="Virgil, Segoe UI Emoji" font-size="36px" fill="#1971c2" text-anchor="start" style="white-space: pre;" direction="ltr" dominant-baseline="text-before-edge">- toString</text></g><g transform="translate(2205.6029295190265 224.64386997251296) rotate(0 73.72797393798828 22.5)"><text x="0" y="0" font-family="Virgil, Segoe UI Emoji" font-size="36px" fill="#1e1e1e" text-anchor="start" style="white-space: pre;" direction="ltr" dominant-baseline="text-before-edge">Héritage</text></g><g stroke-linecap="round" transform="translate(2332.8010112961265 389.49990844858) rotate(0 428.2240155994291 158.35583151885965)"><path d="M32 0 M32 0 C291.24 -2.81, 551.19 -2.32, 824.45 0 M32 0 C329.49 1.82, 627.83 2.06, 824.45 0 M824.45 0 C846.76 -0.33, 855.71 11.42, 856.45 32 M824.45 0 C845.33 -0.05, 856.56 11.66, 856.45 32 M856.45 32 C857.14 112.38, 858.63 193.6, 856.45 284.71 M856.45 32 C854.17 101.01, 854.31 170.82, 856.45 284.71 M856.45 284.71 C856.92 306.08, 847.02 316.33, 824.45 316.71 M856.45 284.71 C858.23 307.7, 844.19 317.36, 824.45 316.71 M824.45 316.71 C604.8 316.74, 383.19 317.71, 32 316.71 M824.45 316.71 C602.99 317.2, 382.21 317.13, 32 316.71 M32 316.71 C9.11 315.76, 1.01 305.19, 0 284.71 M32 316.71 C8.44 316.33, -0.72 306.88, 0 284.71 M0 284.71 C-0.97 223.64, -1.53 160.16, 0 32 M0 284.71 C1.1 200.83, -0.06 115.94, 0 32 M0 32 C0.62 9.48, 12.02 0.22, 32 0 M0 32 C-1.37 12.38, 9.2 -0.73, 32 0" stroke="#1e1e1e" stroke-width="1" fill="none"></path></g><g transform="translate(2381.717210561115 416.46432628846077) rotate(0 361.1158447265625 135)"><text x="0" y="0" font-family="Virgil, Segoe UI Emoji" font-size="36px" fill="#1e1e1e" text-anchor="start" style="white-space: pre;" direction="ltr" dominant-baseline="text-before-edge">Point</text><text x="0" y="45" font-family="Virgil, Segoe UI Emoji" font-size="36px" fill="#1e1e1e" text-anchor="start" style="white-space: pre;" direction="ltr" dominant-baseline="text-before-edge">name: String</text><text x="0" y="90" font-family="Virgil, Segoe UI Emoji" font-size="36px" fill="#1e1e1e" text-anchor="start" style="white-space: pre;" direction="ltr" dominant-baseline="text-before-edge">x: double</text><text x="0" y="135" font-family="Virgil, Segoe UI Emoji" font-size="36px" fill="#1e1e1e" text-anchor="start" style="white-space: pre;" direction="ltr" dominant-baseline="text-before-edge">y: double</text><text x="0" y="180" font-family="Virgil, Segoe UI Emoji" font-size="36px" fill="#1e1e1e" text-anchor="start" style="white-space: pre;" direction="ltr" dominant-baseline="text-before-edge">distance(p: Point): double</text><text x="0" y="225" font-family="Virgil, Segoe UI Emoji" font-size="36px" fill="#1e1e1e" text-anchor="start" style="white-space: pre;" direction="ltr" dominant-baseline="text-before-edge">translate(deltaX: double, deltaY: double)</text></g><g stroke-linecap="round"><g transform="translate(2333.630099419262 457.0896443220951) rotate(0 429.4676477841324 -0.41454406156776713)"><path d="M1.01 0.88 C143.83 0.99, 715 0.17, 857.81 -0.15 M0.08 0.3 C143.18 0.14, 716.58 -1.89, 859.94 -1.92" stroke="#1e1e1e" stroke-width="1" fill="none"></path></g></g><mask></mask><g stroke-linecap="round"><g transform="translate(2332.8010112961265 596.3764490088408) rotate(0 428.63855966099686 -0.8290881231355343)"><path d="M0.79 -0.34 C143.78 -0.85, 715.47 -1.91, 858.05 -2.18 M-0.26 -1.56 C142.63 -2, 714.37 -1.05, 857.5 -0.92" stroke="#1e1e1e" stroke-width="1" fill="none"></path></g></g><mask></mask><g transform="translate(2599.238027514295 920.1131061214807) rotate(0 120.34795379638672 45)"><text x="0" y="0" font-family="Virgil, Segoe UI Emoji" font-size="36px" fill="#1e1e1e" text-anchor="start" style="white-space: pre;" direction="ltr" dominant-baseline="text-before-edge">WeightedPoint</text><text x="0" y="45" font-family="Virgil, Segoe UI Emoji" font-size="36px" fill="#1e1e1e" text-anchor="start" style="white-space: pre;" direction="ltr" dominant-baseline="text-before-edge">weight: double</text></g><g stroke-linecap="round" transform="translate(2579.992244047068 899.2952742271947) rotate(0 149.39855830016768 73.47470080336109)"><path d="M32 0 M32 0 C102.47 0.34, 177.51 -0.82, 266.8 0 M32 0 C112.12 -1.72, 191.97 -0.71, 266.8 0 M266.8 0 C288.91 0.45, 300.14 10.72, 298.8 32 M266.8 0 C286.3 0.31, 297.21 8.66, 298.8 32 M298.8 32 C299.03 55.56, 297.92 80.93, 298.8 114.95 M298.8 32 C297.93 54.36, 297.98 78.93, 298.8 114.95 M298.8 114.95 C297.74 137.26, 289.03 146.28, 266.8 146.95 M298.8 114.95 C298.06 135.43, 287.39 144.82, 266.8 146.95 M266.8 146.95 C177.91 149.38, 90.36 147.42, 32 146.95 M266.8 146.95 C177.49 146.75, 88.46 146.99, 32 146.95 M32 146.95 C9.26 148.33, -0.25 135.38, 0 114.95 M32 146.95 C9.11 148.89, 0.11 136.66, 0 114.95 M0 114.95 C-1.28 95.91, -1.05 73.05, 0 32 M0 114.95 C-0.74 83.32, 0.44 52.16, 0 32 M0 32 C-0.73 8.96, 10.45 1.53, 32 0 M0 32 C-1.99 8.88, 9.27 1.81, 32 0" stroke="#1e1e1e" stroke-width="1" fill="none"></path></g><g stroke-linecap="round"><g transform="translate(2582.093930660177 960.5241915633293) rotate(0 146.94940160672218 -2.449156693445275)"><path d="M0.7 -0.29 C49.81 -1.07, 246.11 -3.35, 294.88 -4.2 M-0.39 -1.48 C48.63 -2.65, 245.67 -5.48, 294.44 -5.96" stroke="#1e1e1e" stroke-width="1" fill="none"></path></g></g><mask></mask><g stroke-linecap="round"><g transform="translate(2582.093930660177 1015.6302171658498) rotate(0 149.39855830016745 -0.612289173361205)"><path d="M0.94 0.65 C50.75 0.39, 248.94 -0.81, 298.7 -1.21 M-0.03 -0.06 C49.64 -0.14, 247.84 0.44, 297.7 0.33" stroke="#1e1e1e" stroke-width="1" fill="none"></path></g></g><mask></mask><g stroke-linecap="round"><g transform="translate(2697.2042952521097 707.6085222187924) rotate(0 -13.470361813949694 20.817831894285717)"><path d="M-0.33 -0.85 C-4.58 6.05, -21.83 34.96, -26.31 42.12 M1.69 1.31 C-2.58 7.79, -21.95 33.8, -26.93 40.26" stroke="#1e1e1e" stroke-width="1" fill="none"></path></g></g><mask></mask><g stroke-linecap="round"><g transform="translate(2697.2042952521097 711.2822572589605) rotate(0 13.470361813949467 18.980964374201648)"><path d="M-0.38 1.16 C3.99 7.34, 22.59 30.53, 27.07 36.83 M1.62 0.72 C5.77 7.03, 22.22 31.71, 26.19 37.78" stroke="#1e1e1e" stroke-width="1" fill="none"></path></g></g><mask></mask><g stroke-linecap="round"><g transform="translate(2673.9373066643784 748.0196076606409) rotate(0 26.328434454537728 0)"><path d="M0.6 1.19 C9.67 1.15, 44.52 0.77, 53.31 0.48 M-0.55 0.78 C8.52 0.3, 43.79 -1.34, 52.71 -1.39" stroke="#1e1e1e" stroke-width="1" fill="none"></path></g></g><mask></mask><g stroke-linecap="round"><g transform="translate(2700.8780302922773 749.2441860073637) rotate(0 0.6122891733614324 71.63783328327702)"><path d="M0.44 -0.16 C0.75 23.9, 2.42 120.32, 2.39 144.32 M-0.79 -1.29 C-0.58 22.47, 1.48 118.9, 2.05 142.74" stroke="#1e1e1e" stroke-width="1" fill="none"></path></g></g><mask></mask><g stroke-linecap="round" transform="translate(3243.366237890427 351.7646563880373) rotate(0 833.9378541181482 377.170130790587)"><path d="M32 0 M32 0 C429.13 0.22, 824.93 0.31, 1635.88 0 M32 0 C475.61 -1.72, 919.75 -1.9, 1635.88 0 M1635.88 0 C1658.41 -0.21, 1668.8 12.13, 1667.88 32 M1635.88 0 C1657.59 1.58, 1668.14 9.75, 1667.88 32 M1667.88 32 C1669.7 262.69, 1670.16 494.09, 1667.88 722.34 M1667.88 32 C1666.3 230.99, 1666.09 430.29, 1667.88 722.34 M1667.88 722.34 C1668.08 742.32, 1659.11 755.33, 1635.88 754.34 M1667.88 722.34 C1669.29 744.54, 1657.39 752.47, 1635.88 754.34 M1635.88 754.34 C1267.5 756.62, 897.75 756.14, 32 754.34 M1635.88 754.34 C1060.98 756.87, 485.67 756.6, 32 754.34 M32 754.34 C9.44 755.99, -0.67 743.71, 0 722.34 M32 754.34 C8.45 752.48, 1.99 742.84, 0 722.34 M0 722.34 C2.8 527.75, 1.95 333.48, 0 32 M0 722.34 C0.73 493.11, 0.36 263.36, 0 32 M0 32 C-0.61 9.03, 9.29 1.88, 32 0 M0 32 C0.53 11.83, 12.84 -0.02, 32 0" stroke="#2f9e44" stroke-width="1" fill="none"></path></g><g transform="translate(3273.980696558494 389.72658513644063) rotate(0 744.461730957031 315)"><text x="0" y="0" font-family="Virgil, Segoe UI Emoji" font-size="36px" fill="#1e1e1e" text-anchor="start" style="white-space: pre;" direction="ltr" dominant-baseline="text-before-edge">- la classe WeightedPoint hérite de la classe Point</text><text x="0" y="45" font-family="Virgil, Segoe UI Emoji" font-size="36px" fill="#1e1e1e" text-anchor="start" style="white-space: pre;" direction="ltr" dominant-baseline="text-before-edge">- la classe Point est la classe parente (EN: parent class</text><text x="0" y="90" font-family="Virgil, Segoe UI Emoji" font-size="36px" fill="#1e1e1e" text-anchor="start" style="white-space: pre;" direction="ltr" dominant-baseline="text-before-edge">- la classe WeightedPoint est la classe fille (EN: child class)</text><text x="0" y="135" font-family="Virgil, Segoe UI Emoji" font-size="36px" fill="#1e1e1e" text-anchor="start" style="white-space: pre;" direction="ltr" dominant-baseline="text-before-edge">- en Java, mot clé "extends"</text><text x="0" y="180" font-family="Virgil, Segoe UI Emoji" font-size="36px" fill="#1e1e1e" text-anchor="start" style="white-space: pre;" direction="ltr" dominant-baseline="text-before-edge">    class WeightedPoint extends Point</text><text x="0" y="225" font-family="Virgil, Segoe UI Emoji" font-size="36px" fill="#1e1e1e" text-anchor="start" style="white-space: pre;" direction="ltr" dominant-baseline="text-before-edge">- un objet WeightedPoint a:</text><text x="0" y="270" font-family="Virgil, Segoe UI Emoji" font-size="36px" fill="#1e1e1e" text-anchor="start" style="white-space: pre;" direction="ltr" dominant-baseline="text-before-edge">    * a name</text><text x="0" y="315" font-family="Virgil, Segoe UI Emoji" font-size="36px" fill="#1e1e1e" text-anchor="start" style="white-space: pre;" direction="ltr" dominant-baseline="text-before-edge">    * coordonnées x et y</text><text x="0" y="360" font-family="Virgil, Segoe UI Emoji" font-size="36px" fill="#1e1e1e" text-anchor="start" style="white-space: pre;" direction="ltr" dominant-baseline="text-before-edge">    * un weight</text><text x="0" y="405" font-family="Virgil, Segoe UI Emoji" font-size="36px" fill="#1e1e1e" text-anchor="start" style="white-space: pre;" direction="ltr" dominant-baseline="text-before-edge">- principe LSP (Liskov Substitution Principal) par Barbara Liskov et Jeannette Wing</text><text x="0" y="450" font-family="Virgil, Segoe UI Emoji" font-size="36px" fill="#1e1e1e" text-anchor="start" style="white-space: pre;" direction="ltr" dominant-baseline="text-before-edge">    " qui peut le plus peut le moins "</text><text x="0" y="495" font-family="Virgil, Segoe UI Emoji" font-size="36px" fill="#1e1e1e" text-anchor="start" style="white-space: pre;" direction="ltr" dominant-baseline="text-before-edge">    un WeightedPoint peut se substituer à un Point</text><text x="0" y="540" font-family="Virgil, Segoe UI Emoji" font-size="36px" fill="#1e1e1e" text-anchor="start" style="white-space: pre;" direction="ltr" dominant-baseline="text-before-edge">    un WeightedPoint est un Point</text><text x="0" y="585" font-family="Virgil, Segoe UI Emoji" font-size="36px" fill="#1e1e1e" text-anchor="start" style="white-space: pre;" direction="ltr" dominant-baseline="text-before-edge">    ptA.distance(wpB)</text></g><g transform="translate(2768.143539064356 1421.796097331579) rotate(0 307.6558532714844 22.5)"><text x="0" y="0" font-family="Virgil, Segoe UI Emoji" font-size="36px" fill="#1e1e1e" text-anchor="start" style="white-space: pre;" direction="ltr" dominant-baseline="text-before-edge">Collections et références mémoires</text></g><g stroke-linecap="round" transform="translate(2999.0289922528846 1807.7287161649583) rotate(0 208.97661456479932 97.7471261674059)"><path d="M32 0 M32 0 C104.41 -0.84, 173.38 -2.33, 385.95 0 M32 0 C150.15 2.57, 268.87 2.58, 385.95 0 M385.95 0 C405.83 1.83, 416.77 12.06, 417.95 32 M385.95 0 C408.21 0.64, 416.19 9.75, 417.95 32 M417.95 32 C419.84 69.17, 419.43 108.03, 417.95 163.49 M417.95 32 C417.42 75.64, 417.33 120.66, 417.95 163.49 M417.95 163.49 C416.7 185.64, 406.52 194.57, 385.95 195.49 M417.95 163.49 C418.91 185.34, 406.85 195.03, 385.95 195.49 M385.95 195.49 C308.5 194, 227.96 194.19, 32 195.49 M385.95 195.49 C257.79 195.24, 129.62 195.96, 32 195.49 M32 195.49 C9.24 195.2, 1.87 183.73, 0 163.49 M32 195.49 C11.4 196.33, -1.58 182.64, 0 163.49 M0 163.49 C-0.99 118.65, 2.03 72.5, 0 32 M0 163.49 C0.39 124.26, -0.65 85.96, 0 32 M0 32 C-1.19 9.93, 10.6 0.89, 32 0 M0 32 C1.17 11.24, 11.87 -1.52, 32 0" stroke="#1e1e1e" stroke-width="1" fill="none"></path></g><g transform="translate(3032.7348978278524 1839.7493264611776) rotate(0 139.35595703125 67.5)"><text x="0" y="0" font-family="Virgil, Segoe UI Emoji" font-size="36px" fill="#1e1e1e" text-anchor="start" style="white-space: pre;" direction="ltr" dominant-baseline="text-before-edge">: Person</text><text x="0" y="45" font-family="Virgil, Segoe UI Emoji" font-size="36px" fill="#1e1e1e" text-anchor="start" style="white-space: pre;" direction="ltr" dominant-baseline="text-before-edge">name = "Joe"</text><text x="0" y="90" font-family="Virgil, Segoe UI Emoji" font-size="36px" fill="#1e1e1e" text-anchor="start" style="white-space: pre;" direction="ltr" dominant-baseline="text-before-edge">birthdate = null</text></g><g stroke-linecap="round"><g transform="translate(2999.0289922528846 1880.196413151139) rotate(0 209.81926220417358 0)"><path d="M-0.8 0.91 C69.02 0.81, 349.51 -0.53, 419.48 -0.48 M0.98 0.35 C70.58 0.39, 348.96 0.95, 418.45 0.8" stroke="#1e1e1e" stroke-width="1" fill="none"></path></g></g><mask></mask><g stroke-linecap="round" transform="translate(3487.399475101332 1812.7846020012025) rotate(0 208.97661456479932 97.7471261674059)"><path d="M32 0 M32 0 C110.9 0.59, 190.89 0.47, 385.95 0 M32 0 C143.13 0.89, 254.92 1.65, 385.95 0 M385.95 0 C406.73 -1.53, 418.86 9.68, 417.95 32 M385.95 0 C408.82 -0.59, 419.53 11.44, 417.95 32 M417.95 32 C415.12 60.48, 415.33 84.69, 417.95 163.49 M417.95 32 C418.88 65.18, 418.36 98.75, 417.95 163.49 M417.95 163.49 C416.68 184.7, 406.34 195.94, 385.95 195.49 M417.95 163.49 C418.4 185.22, 408.36 194, 385.95 195.49 M385.95 195.49 C245.78 197.6, 103.87 197.28, 32 195.49 M385.95 195.49 C285.56 194.02, 185.59 194.47, 32 195.49 M32 195.49 C10.03 196.97, 1.29 185.85, 0 163.49 M32 195.49 C11.86 196.06, 2.2 183.48, 0 163.49 M0 163.49 C-1.9 129.77, 1.18 99.43, 0 32 M0 163.49 C-0.48 133.33, -0.54 101.03, 0 32 M0 32 C-0.72 9.86, 12.55 -1, 32 0 M0 32 C-1.07 8.74, 11.61 -0.72, 32 0" stroke="#1e1e1e" stroke-width="1" fill="none"></path></g><g transform="translate(3521.1053806763 1844.8052122974227) rotate(0 139.35595703125 67.5)"><text x="0" y="0" font-family="Virgil, Segoe UI Emoji" font-size="36px" fill="#1e1e1e" text-anchor="start" style="white-space: pre;" direction="ltr" dominant-baseline="text-before-edge">: Person</text><text x="0" y="45" font-family="Virgil, Segoe UI Emoji" font-size="36px" fill="#1e1e1e" text-anchor="start" style="white-space: pre;" direction="ltr" dominant-baseline="text-before-edge">name = "Jack"</text><text x="0" y="90" font-family="Virgil, Segoe UI Emoji" font-size="36px" fill="#1e1e1e" text-anchor="start" style="white-space: pre;" direction="ltr" dominant-baseline="text-before-edge">birthdate = null</text></g><g stroke-linecap="round"><g transform="translate(3487.399475101332 1885.2522989873837) rotate(0 209.81926220417358 0)"><path d="M-0.2 0.19 C69.61 0.18, 348.97 -0.5, 418.77 -0.62 M-1.77 -0.76 C68.43 -0.56, 350.58 0.38, 421.03 0.59" stroke="#1e1e1e" stroke-width="1" fill="none"></path></g></g><mask></mask><g stroke-linecap="round" transform="translate(4001.414535119588 1809.4140114437064) rotate(0 208.97661456479955 97.7471261674059)"><path d="M32 0 M32 0 C121.18 1.15, 206.56 1.4, 385.95 0 M32 0 C110.53 1.14, 189.31 0.83, 385.95 0 M385.95 0 C407.5 0.5, 419.58 10.89, 417.95 32 M385.95 0 C409.37 -1.34, 419.36 8.79, 417.95 32 M417.95 32 C417.21 65.54, 419.41 99.21, 417.95 163.49 M417.95 32 C417.61 61.73, 416.95 92.63, 417.95 163.49 M417.95 163.49 C417.51 186.09, 408.12 193.8, 385.95 195.49 M417.95 163.49 C418.85 184.98, 405.22 194.71, 385.95 195.49 M385.95 195.49 C290.26 192.41, 194.24 193.9, 32 195.49 M385.95 195.49 C269.9 195.49, 153.99 194.67, 32 195.49 M32 195.49 C9.72 196.14, 1.96 186.54, 0 163.49 M32 195.49 C11.98 194.03, -0.78 182.8, 0 163.49 M0 163.49 C-2.27 113.07, -1.84 64.49, 0 32 M0 163.49 C0.23 118.33, 1.67 72.66, 0 32 M0 32 C1.56 11.9, 9.19 -1.96, 32 0 M0 32 C-2.01 9.53, 9.44 -2.13, 32 0" stroke="#2f9e44" stroke-width="1" fill="none"></path></g><g transform="translate(4035.120440694556 1841.4346217399266) rotate(0 139.35595703125 67.5)"><text x="0" y="0" font-family="Virgil, Segoe UI Emoji" font-size="36px" fill="#1e1e1e" text-anchor="start" style="white-space: pre;" direction="ltr" dominant-baseline="text-before-edge">: Person</text><text x="0" y="45" font-family="Virgil, Segoe UI Emoji" font-size="36px" fill="#1e1e1e" text-anchor="start" style="white-space: pre;" direction="ltr" dominant-baseline="text-before-edge">name = "William"</text><text x="0" y="90" font-family="Virgil, Segoe UI Emoji" font-size="36px" fill="#1e1e1e" text-anchor="start" style="white-space: pre;" direction="ltr" dominant-baseline="text-before-edge">birthdate = null</text></g><g stroke-linecap="round"><g transform="translate(4001.414535119588 1881.8817084298876) rotate(0 209.8192622041738 0)"><path d="M0.01 -0.93 C69.88 -0.79, 349.07 -0.65, 418.97 -0.33 M-1.44 1.19 C68.84 1.61, 351.34 1.38, 421.33 1.03" stroke="#1e1e1e" stroke-width="1" fill="none"></path></g></g><mask></mask><g stroke-linecap="round" transform="translate(4486.779575399123 1812.7846020012043) rotate(0 208.97661456479955 97.7471261674059)"><path d="M32 0 M32 0 C159.26 -2.78, 283.54 -1, 385.95 0 M32 0 C128.82 -1.05, 226.82 -0.89, 385.95 0 M385.95 0 C405.93 -1.27, 417.6 8.77, 417.95 32 M385.95 0 C408.37 2.09, 417.63 8.99, 417.95 32 M417.95 32 C416.81 70.62, 419.48 108.01, 417.95 163.49 M417.95 32 C417.84 67.91, 418.33 102.65, 417.95 163.49 M417.95 163.49 C416.82 185.79, 405.87 197.17, 385.95 195.49 M417.95 163.49 C417.56 187.03, 407.52 194.73, 385.95 195.49 M385.95 195.49 C288.26 195.94, 189.26 194.93, 32 195.49 M385.95 195.49 C255.13 193.67, 123.94 193.38, 32 195.49 M32 195.49 C12.42 195.05, 1.76 183.49, 0 163.49 M32 195.49 C10.76 193.83, -0.79 184.04, 0 163.49 M0 163.49 C2.72 123.45, -0.22 83.72, 0 32 M0 163.49 C0.53 130.42, 0.49 95.67, 0 32 M0 32 C-1.66 12.3, 11.6 0.11, 32 0 M0 32 C-0.15 11.29, 10.43 0.99, 32 0" stroke="#1e1e1e" stroke-width="1" fill="none"></path></g><g transform="translate(4520.48548097409 1844.8052122974227) rotate(0 140.6879425048828 67.5)"><text x="0" y="0" font-family="Virgil, Segoe UI Emoji" font-size="36px" fill="#1e1e1e" text-anchor="start" style="white-space: pre;" direction="ltr" dominant-baseline="text-before-edge">: Person</text><text x="0" y="45" font-family="Virgil, Segoe UI Emoji" font-size="36px" fill="#1e1e1e" text-anchor="start" style="white-space: pre;" direction="ltr" dominant-baseline="text-before-edge">name = "Averell"</text><text x="0" y="90" font-family="Virgil, Segoe UI Emoji" font-size="36px" fill="#1e1e1e" text-anchor="start" style="white-space: pre;" direction="ltr" dominant-baseline="text-before-edge">birthdate = null</text></g><g stroke-linecap="round"><g transform="translate(4486.779575399123 1885.2522989873837) rotate(0 209.8192622041738 0)"><path d="M0.64 -0.3 C70.88 -0.13, 350.72 0.42, 420.43 0.35 M-0.49 -1.51 C69.75 -1.66, 349.59 -1.87, 419.9 -1.58" stroke="#1e1e1e" stroke-width="1" fill="none"></path></g></g><mask></mask><g stroke-linecap="round" transform="translate(2929.9318858242004 1573.4726724189327) rotate(0 355.5973038159084 45.50297252620635)"><path d="M22.75 0 M22.75 0 C257.2 -2.54, 490.41 -2.54, 688.44 0 M22.75 0 C158.1 1.53, 293.05 1.78, 688.44 0 M688.44 0 C702.64 -1.59, 712.74 7.86, 711.19 22.75 M688.44 0 C703.19 0.27, 713.29 9.18, 711.19 22.75 M711.19 22.75 C711.65 40.28, 710.2 53.3, 711.19 68.25 M711.19 22.75 C710.83 33.2, 710.33 42.05, 711.19 68.25 M711.19 68.25 C709.49 84.76, 703.96 92.03, 688.44 91.01 M711.19 68.25 C711.04 84, 703.64 90.74, 688.44 91.01 M688.44 91.01 C535.48 91.81, 381.38 92.06, 22.75 91.01 M688.44 91.01 C429.9 90.87, 172.11 90.36, 22.75 91.01 M22.75 91.01 C8.5 90.47, 0.04 84.84, 0 68.25 M22.75 91.01 C8.9 91.87, 1.77 85.65, 0 68.25 M0 68.25 C1.41 50.06, 0.12 33.95, 0 22.75 M0 68.25 C-0.42 54.53, 0.73 41.75, 0 22.75 M0 22.75 C0.25 7.05, 5.7 0.85, 22.75 0 M0 22.75 C1.07 5.61, 9.39 -2, 22.75 0" stroke="#1e1e1e" stroke-width="1" fill="none"></path></g><g stroke-linecap="round"><g transform="translate(3266.990941573877 1570.1020818614365) rotate(0 -0.8426476393740359 48.03091544432891)"><path d="M-0.53 -0.19 C-0.97 15.83, -2.61 79.93, -2.79 95.94 M1.39 -1.33 C1.32 14.89, -0.04 81.01, -0.66 97.42" stroke="#1e1e1e" stroke-width="1" fill="none"></path></g></g><mask></mask><g stroke-linecap="round"><g transform="translate(3083.2937561903036 1573.4726724189331) rotate(0 0 42.132381968709524)"><path d="M1.05 0.31 C1.07 13.98, 0.44 69.11, 0.07 83.14 M0.14 -0.57 C0.01 13.71, -1 69.68, -0.84 84.08" stroke="#1e1e1e" stroke-width="1" fill="none"></path></g></g><mask></mask><g stroke-linecap="round"><g transform="translate(3438.891060006212 1575.1579676976817) rotate(0 -1.6852952787480717 43.81767724745805)"><path d="M-1.11 0.43 C-1.38 15.18, -2.21 73.86, -2.68 88.53 M0.51 -0.4 C0.24 14.03, -2.34 72.38, -3.26 86.88" stroke="#1e1e1e" stroke-width="1" fill="none"></path></g></g><mask></mask><g transform="translate(2968.693677235414 1529.654995171475) rotate(0 12.383995056152344 22.5)"><text x="0" y="0" font-family="Virgil, Segoe UI Emoji" font-size="36px" fill="#1e1e1e" text-anchor="start" style="white-space: pre;" direction="ltr" dominant-baseline="text-before-edge">0</text></g><g transform="translate(3160.817339012729 1523.7667668439658) rotate(0 4.877998352050781 22.5)"><text x="0" y="0" font-family="Virgil, Segoe UI Emoji" font-size="36px" fill="#1e1e1e" text-anchor="start" style="white-space: pre;" direction="ltr" dominant-baseline="text-before-edge">1</text></g><g transform="translate(3329.3468668875676 1526.2844046139785) rotate(0 12.815994262695312 22.5)"><text x="0" y="0" font-family="Virgil, Segoe UI Emoji" font-size="36px" fill="#1e1e1e" text-anchor="start" style="white-space: pre;" direction="ltr" dominant-baseline="text-before-edge">2</text></g><g transform="translate(3506.3028711561474 1531.3402904502236) rotate(0 12.25799560546875 22.5)"><text x="0" y="0" font-family="Virgil, Segoe UI Emoji" font-size="36px" fill="#1e1e1e" text-anchor="start" style="white-space: pre;" direction="ltr" dominant-baseline="text-before-edge">3</text></g><g stroke-linecap="round" transform="translate(2649.3817476531435 1527.822652680211) rotate(0 97.5 72.72057081877438)"><path d="M32 0 M32 0 C72.37 -0.23, 110.26 -2.34, 163 0 M32 0 C61.2 0.08, 90.72 0.91, 163 0 M163 0 C186.17 -0.83, 194.1 8.85, 195 32 M163 0 C183.28 0.44, 196.08 10.09, 195 32 M195 32 C192.82 56.84, 195.96 82.33, 195 113.44 M195 32 C193.88 56.16, 194.35 82.51, 195 113.44 M195 113.44 C193.73 135.85, 182.43 146.57, 163 145.44 M195 113.44 C195.66 136.19, 184.59 143.28, 163 145.44 M163 145.44 C134.6 147.3, 106.06 146.96, 32 145.44 M163 145.44 C115.72 144.68, 69.16 145.4, 32 145.44 M32 145.44 C10.5 144.26, 1.33 136.29, 0 113.44 M32 145.44 C10.9 146.85, 1.14 133.73, 0 113.44 M0 113.44 C-2 89.34, -1.63 64.76, 0 32 M0 113.44 C0.48 90.88, -0.15 70.17, 0 32 M0 32 C1 10.39, 10.02 0.62, 32 0 M0 32 C0.49 12.24, 11.59 -1.16, 32 0" stroke="#1e1e1e" stroke-width="1" fill="none"></path></g><g stroke-linecap="round"><g transform="translate(2650.172869551969 1607.1785779939005) rotate(0 98.58977380678039 0)"><path d="M0 0.47 C32.9 0.39, 163.7 -0.27, 196.61 -0.37 M-1.46 -0.33 C31.3 -0.25, 162.31 0.73, 195.36 0.97" stroke="#1e1e1e" stroke-width="1" fill="none"></path></g></g><mask></mask><g transform="translate(2668.711117618201 1549.8785385164551) rotate(0 48.02397918701172 22.5)"><text x="0" y="0" font-family="Virgil, Segoe UI Emoji" font-size="36px" fill="#1e1e1e" text-anchor="start" style="white-space: pre;" direction="ltr" dominant-baseline="text-before-edge">: List</text></g><g stroke-linecap="round"><g transform="translate(2801.8494446393233 1630.7727118963776) rotate(0 65.72651587118708 -1.685295278748299)"><path d="M0.45 0.1 C22.48 -0.48, 109.18 -3.65, 131.2 -4.22 M-0.78 -0.89 C21.17 -1.27, 107.92 -2.95, 130.11 -3.13" stroke="#1e1e1e" stroke-width="1" fill="none"></path></g><g transform="translate(2801.8494446393233 1630.7727118963776) rotate(0 65.72651587118708 -1.685295278748299)"><path d="M102.25 7.11 C106.74 6.97, 114.28 1.39, 130.65 -2.31 M102.65 8.02 C107.23 5.19, 114.81 1.89, 130.3 -3.67" stroke="#1e1e1e" stroke-width="1" fill="none"></path></g><g transform="translate(2801.8494446393233 1630.7727118963776) rotate(0 65.72651587118708 -1.685295278748299)"><path d="M101.95 -13.41 C106.38 -9.15, 113.98 -10.32, 130.65 -2.31 M102.36 -12.5 C107.19 -10.86, 114.84 -9.69, 130.3 -3.67" stroke="#1e1e1e" stroke-width="1" fill="none"></path></g></g><mask></mask><g stroke-linecap="round"><g transform="translate(3017.5672403191165 1625.7168260601325) rotate(0 80.05152574054819 93.53388797053526)"><path d="M-0.46 1.01 C26.3 32.08, 133.23 156.01, 159.89 187.11 M1.5 0.5 C28.14 31.71, 132.68 157.83, 158.83 188.67" stroke="#1e1e1e" stroke-width="1" fill="none"></path></g><g transform="translate(3017.5672403191165 1625.7168260601325) rotate(0 80.05152574054819 93.53388797053526)"><path d="M134.55 173.29 C139.37 176.39, 146.54 182.82, 158.64 189.65 M132.89 173.85 C140 177.56, 146.97 181.19, 158.44 187.67" stroke="#1e1e1e" stroke-width="1" fill="none"></path></g><g transform="translate(3017.5672403191165 1625.7168260601325) rotate(0 80.05152574054819 93.53388797053526)"><path d="M150.28 160.11 C151.33 166.38, 154.65 176.03, 158.64 189.65 M148.62 160.68 C151.18 168.24, 153.62 175.65, 158.44 187.67" stroke="#1e1e1e" stroke-width="1" fill="none"></path></g></g><mask></mask><g stroke-linecap="round"><g transform="translate(3170.929110685219 1625.7168260601325) rotate(0 246.05311069726395 91.0059450524127)"><path d="M-1.09 1.12 C81.26 31.19, 411.19 151.4, 493.22 181.4 M0.54 0.67 C82.91 30.8, 410.71 152.4, 492.86 182.62" stroke="#1e1e1e" stroke-width="1" fill="none"></path></g><g transform="translate(3170.929110685219 1625.7168260601325) rotate(0 246.05311069726395 91.0059450524127)"><path d="M464.73 184.33 C468.62 181.08, 474.92 183.74, 493.91 182.44 M463.1 183.25 C470.08 182.09, 478.4 182.84, 492.28 181.96" stroke="#1e1e1e" stroke-width="1" fill="none"></path></g><g transform="translate(3170.929110685219 1625.7168260601325) rotate(0 246.05311069726395 91.0059450524127)"><path d="M471.84 165.08 C474.28 166.12, 478.97 173.13, 493.91 182.44 M470.22 164 C475.27 168.01, 481.7 173.89, 492.28 181.96" stroke="#1e1e1e" stroke-width="1" fill="none"></path></g></g><mask></mask><g stroke-linecap="round"><g transform="translate(3336.0880480025608 1618.9756449451388) rotate(0 423.8517626052178 95.21918324928356)"><path d="M-0.88 0.65 C140.11 32.59, 705.15 159.35, 846.53 190.78 M0.86 -0.05 C142.14 31.58, 707.69 157.17, 848.62 188.84" stroke="#1e1e1e" stroke-width="1" fill="none"></path></g><g transform="translate(3336.0880480025608 1618.9756449451388) rotate(0 423.8517626052178 95.21918324928356)"><path d="M819.96 190.76 C829.9 191.04, 837.81 191.62, 849.3 188.87 M818.75 193.36 C830.15 192.42, 842.6 189.59, 848.71 189.04" stroke="#1e1e1e" stroke-width="1" fill="none"></path></g><g transform="translate(3336.0880480025608 1618.9756449451388) rotate(0 423.8517626052178 95.21918324928356)"><path d="M824.43 170.73 C832.66 178, 839.01 185.58, 849.3 188.87 M823.22 173.33 C832.72 180.05, 843.45 184.91, 848.71 189.04" stroke="#1e1e1e" stroke-width="1" fill="none"></path></g></g><mask></mask><g stroke-linecap="round"><g transform="translate(3558.547024797347 1603.8079874364034) rotate(0 573.8430424138235 101.96036436427721)"><path d="M-0.89 -0.5 C190.4 33.37, 955.44 169.37, 1147.01 203.54 M0.84 -1.8 C192.59 32.2, 958.15 170.83, 1149.37 204.88" stroke="#1e1e1e" stroke-width="1" fill="none"></path></g><g transform="translate(3558.547024797347 1603.8079874364034) rotate(0 573.8430424138235 101.96036436427721)"><path d="M1118.98 208.87 C1126.24 210.36, 1134.98 208.05, 1151.37 206.49 M1120.66 210.3 C1126.78 209.44, 1133.08 208.19, 1149.84 205.24" stroke="#1e1e1e" stroke-width="1" fill="none"></path></g><g transform="translate(3558.547024797347 1603.8079874364034) rotate(0 573.8430424138235 101.96036436427721)"><path d="M1122.61 188.67 C1129.06 194.97, 1136.93 197.5, 1151.37 206.49 M1124.29 190.1 C1129.65 193.51, 1135.19 196.5, 1149.84 205.24" stroke="#1e1e1e" stroke-width="1" fill="none"></path></g></g><mask></mask><g stroke-linecap="round" transform="translate(2281.093203506074 1571.787377140185) rotate(0 112.9147836761415 37.0764961324644)"><path d="M149.25 1.73 C163.8 2.69, 178.4 5.94, 189.71 9.43 C201.01 12.92, 211.06 17.85, 217.09 22.66 C223.11 27.47, 226.06 33.42, 225.86 38.29 C225.65 43.16, 222.15 47.57, 215.84 51.88 C209.53 56.19, 199.54 60.73, 187.98 64.17 C176.42 67.6, 161.24 70.98, 146.49 72.51 C131.74 74.04, 114.53 73.86, 99.5 73.33 C84.46 72.8, 69.31 71.96, 56.29 69.35 C43.28 66.74, 30.5 61.79, 21.4 57.67 C12.3 53.56, 4.79 49.33, 1.7 44.67 C-1.38 40.01, -0.38 34.52, 2.91 29.7 C6.19 24.87, 12.26 19.86, 21.41 15.72 C30.55 11.58, 44.38 7.31, 57.8 4.85 C71.21 2.4, 85.19 1.36, 101.91 1 C118.63 0.63, 147.61 1.89, 158.11 2.66 C168.61 3.43, 165.66 5.1, 164.92 5.62 M160.79 4.67 C174.66 6.24, 188.87 10.05, 198.91 13.74 C208.94 17.44, 216.76 22.3, 220.99 26.84 C225.22 31.38, 226.06 36.23, 224.29 40.98 C222.52 45.73, 218.12 50.86, 210.36 55.35 C202.61 59.85, 190.56 64.89, 177.75 67.95 C164.95 71.01, 148.51 72.86, 133.54 73.7 C118.57 74.55, 102.86 74.2, 87.94 73.04 C73.02 71.88, 56.54 69.73, 44.04 66.75 C31.54 63.77, 20.19 59.84, 12.95 55.17 C5.71 50.5, 1.87 43.63, 0.6 38.72 C-0.68 33.8, 0.49 30.22, 5.33 25.7 C10.16 21.18, 18.87 15.58, 29.58 11.61 C40.3 7.64, 55.17 3.78, 69.62 1.87 C84.08 -0.05, 101.11 -0.27, 116.3 0.11 C131.49 0.49, 153.37 3.52, 160.77 4.15 C168.17 4.78, 161.2 3.32, 160.7 3.89" stroke="#f08c00" stroke-width="1" fill="none"></path></g><g transform="translate(2331.652061868525 1585.269739370172) rotate(0 64.38597106933594 22.5)"><text x="0" y="0" font-family="Virgil, Segoe UI Emoji" font-size="36px" fill="#f08c00" text-anchor="start" style="white-space: pre;" direction="ltr" dominant-baseline="text-before-edge">persons</text></g><g stroke-linecap="round"><g transform="translate(2488.3845227921242 1602.1226921576558) rotate(0 75.83828754367732 0.8426476393740359)"><path d="M0.36 -0.74 C25.43 -0.4, 125.97 0.76, 151.02 1.01 M-0.91 1.49 C24.5 2.06, 127.74 2.17, 153.39 2.19" stroke="#f08c00" stroke-width="1" fill="none"></path></g><g transform="translate(2488.3845227921242 1602.1226921576558) rotate(0 75.83828754367732 0.8426476393740359)"><path d="M123.96 11.33 C134.09 7.03, 143.6 5.1, 151.6 2.26 M125.75 12.49 C135.39 8.64, 144.8 4.56, 152.89 1.98" stroke="#f08c00" stroke-width="1" fill="none"></path></g><g transform="translate(2488.3845227921242 1602.1226921576558) rotate(0 75.83828754367732 0.8426476393740359)"><path d="M123.99 -9.19 C133.93 -6.26, 143.43 -0.96, 151.6 2.26 M125.78 -8.03 C135.38 -5.05, 144.78 -2.3, 152.89 1.98" stroke="#f08c00" stroke-width="1" fill="none"></path></g></g><mask></mask><g stroke-linecap="round" transform="translate(2196.8284395686546 2070.634779649706) rotate(0 177.7986519079543 37.0764961324644)"><path d="M155.53 -0.51 C173.33 -1.5, 195 -0.01, 213.83 0.76 C232.67 1.54, 252.13 2.13, 268.51 4.15 C284.89 6.16, 299.62 9.48, 312.11 12.86 C324.59 16.24, 336.36 20.6, 343.42 24.45 C350.47 28.3, 353.64 32.02, 354.45 35.94 C355.26 39.86, 353.42 44.3, 348.29 47.97 C343.15 51.65, 334.65 54.91, 323.66 57.98 C312.66 61.04, 298.06 64.08, 282.34 66.35 C266.62 68.62, 247.76 70.25, 229.35 71.61 C210.95 72.98, 191.25 74.6, 171.91 74.55 C152.56 74.5, 131.33 72.82, 113.27 71.3 C95.21 69.77, 78.18 67.81, 63.56 65.39 C48.94 62.96, 35.55 60.04, 25.53 56.76 C15.52 53.49, 7.53 49.88, 3.47 45.74 C-0.59 41.59, -1.11 36.18, 1.18 31.9 C3.48 27.61, 8.87 23.51, 17.24 20.02 C25.61 16.53, 37.9 13.7, 51.42 10.95 C64.93 8.2, 79.62 5.47, 98.32 3.51 C117.03 1.55, 151.09 -0.41, 163.67 -0.81 C176.25 -1.21, 173.37 0.36, 173.81 1.11 M106.54 4.02 C121.91 1.7, 143.21 -0.16, 162.63 -0.47 C182.06 -0.79, 204.24 1.09, 223.1 2.12 C241.96 3.14, 260.1 3.81, 275.77 5.67 C291.45 7.53, 305.26 9.89, 317.15 13.28 C329.05 16.68, 340.65 22.2, 347.11 26.02 C353.57 29.84, 356.17 32.33, 355.91 36.22 C355.66 40.1, 352.14 45.49, 345.59 49.32 C339.04 53.16, 328.57 56.26, 316.61 59.23 C304.64 62.2, 289.64 65.03, 273.8 67.13 C257.96 69.23, 239.96 70.76, 221.57 71.83 C203.18 72.9, 182.71 73.82, 163.44 73.56 C144.18 73.29, 123.53 71.79, 105.97 70.22 C88.42 68.66, 72.43 66.65, 58.11 64.14 C43.8 61.64, 29.63 58.47, 20.09 55.19 C10.55 51.9, 4 48.58, 0.88 44.41 C-2.25 40.24, -2.36 34.12, 1.33 30.16 C5.02 26.19, 13.61 24.16, 23.01 20.6 C32.41 17.05, 43.92 11.7, 57.71 8.84 C71.51 5.97, 97.46 4.21, 105.79 3.42 C114.11 2.63, 106.39 3.4, 107.67 4.09" stroke="#f08c00" stroke-width="1" fill="none"></path></g><g transform="translate(2247.387297931106 2084.1171418796926) rotate(0 125.60395050048828 22.5)"><text x="0" y="0" font-family="Virgil, Segoe UI Emoji" font-size="36px" fill="#f08c00" text-anchor="start" style="white-space: pre;" direction="ltr" dominant-baseline="text-before-edge">person: Person</text></g><g stroke-linecap="round"><g transform="translate(2543.999266990821 2111.081866339667) rotate(0 832.5358677017007 -42.97502960808333)"><path d="M-0.11 -0.9 C143.42 1.26, 583.09 30.78, 860.59 14.07 C1138.1 -2.64, 1530.98 -81.88, 1664.92 -101.14 M-1.63 1.24 C142.35 4.03, 585.38 31.88, 863 15.03 C1140.61 -1.82, 1530.57 -80.56, 1664.08 -99.83" stroke="#f08c00" stroke-width="1" fill="none"></path></g><g transform="translate(2543.999266990821 2111.081866339667) rotate(0 832.5358677017007 -42.97502960808333)"><path d="M1636.47 -86.03 C1642.61 -89.01, 1651 -93.91, 1663.43 -101.32 M1638.57 -85.18 C1642.62 -87.93, 1649.58 -91.71, 1664.72 -100.69" stroke="#f08c00" stroke-width="1" fill="none"></path></g><g transform="translate(2543.999266990821 2111.081866339667) rotate(0 832.5358677017007 -42.97502960808333)"><path d="M1633.07 -106.27 C1640.25 -104.13, 1649.51 -103.91, 1663.43 -101.32 M1635.17 -105.41 C1639.92 -103.96, 1647.58 -103.5, 1664.72 -100.69" stroke="#f08c00" stroke-width="1" fill="none"></path></g></g><mask></mask><g stroke-linecap="round" transform="translate(2185.874020256789 2197.0319255558347) rotate(0 177.7986519079543 37.0764961324644)"><path d="M250 3.61 C267.94 4.88, 284.71 8.02, 298.91 10.76 C313.11 13.5, 326.25 16.82, 335.18 20.04 C344.11 23.26, 349.36 26.34, 352.52 30.08 C355.67 33.82, 357.04 38.42, 354.09 42.5 C351.13 46.59, 344.09 50.87, 334.78 54.6 C325.47 58.33, 312.59 62.02, 298.22 64.88 C283.86 67.73, 266.43 70.04, 248.6 71.71 C230.78 73.39, 210.34 74.82, 191.27 74.91 C172.19 75, 152.67 73.24, 134.17 72.25 C115.67 71.26, 96.48 70.97, 80.25 68.98 C64.02 66.99, 48.53 63.68, 36.78 60.32 C25.03 56.96, 15.98 52.74, 9.76 48.8 C3.53 44.87, -0.45 40.62, -0.58 36.71 C-0.7 32.8, 2.47 29.23, 9 25.37 C15.52 21.5, 26.7 16.64, 38.57 13.5 C50.45 10.37, 64.26 8.64, 80.26 6.56 C96.26 4.48, 115.96 2.15, 134.57 1.04 C153.18 -0.07, 170.25 -0.69, 191.91 -0.12 C213.58 0.45, 250.41 3.19, 264.56 4.46 C278.71 5.72, 278.18 6.73, 276.8 7.47 M199.75 -0.67 C218.22 -0.93, 239.65 0.86, 257.1 2.6 C274.54 4.34, 290.74 6.57, 304.4 9.78 C318.05 12.99, 330.53 17.82, 339.02 21.88 C347.51 25.95, 353.45 30.27, 355.34 34.19 C357.23 38.11, 354.48 41.71, 350.34 45.39 C346.21 49.07, 340.07 52.69, 330.53 56.29 C320.98 59.88, 307.94 64.27, 293.06 66.97 C278.17 69.67, 259.54 71.15, 241.23 72.51 C222.92 73.86, 202.38 74.9, 183.2 75.1 C164.02 75.29, 144.22 75.03, 126.14 73.69 C108.06 72.34, 90.55 69.61, 74.71 67.04 C58.88 64.48, 42.63 61.82, 31.13 58.29 C19.64 54.76, 11.06 49.92, 5.74 45.89 C0.41 41.85, -2.08 37.76, -0.79 34.07 C0.5 30.39, 6.12 27.12, 13.49 23.78 C20.85 20.44, 30.98 17.19, 43.39 14.05 C55.8 10.91, 71.44 6.95, 87.96 4.93 C104.48 2.9, 123.61 2.58, 142.52 1.9 C161.43 1.21, 191.85 0.87, 201.42 0.82 C210.99 0.77, 200.23 1.18, 199.94 1.62" stroke="#f08c00" stroke-width="1" fill="none"></path></g><g transform="translate(2236.4328786192405 2210.514287785821) rotate(0 138.41995239257812 22.5)"><text x="0" y="0" font-family="Virgil, Segoe UI Emoji" font-size="36px" fill="#f08c00" text-anchor="start" style="white-space: pre;" direction="ltr" dominant-baseline="text-before-edge">person2: Person</text></g><g stroke-linecap="round" transform="translate(2604.537457642431 2155.6553899459254) rotate(0 208.97661456479932 97.74712616740578)"><path d="M32 0 M32 0 C102.23 0.31, 173.01 1.44, 385.95 0 M32 0 C169.21 1.61, 306.49 1.54, 385.95 0 M385.95 0 C408.44 -0.57, 418.36 10.67, 417.95 32 M385.95 0 C408.02 -1.43, 416.98 11.46, 417.95 32 M417.95 32 C417.44 69.46, 417.57 104.32, 417.95 163.49 M417.95 32 C417.66 69.68, 419.01 107.79, 417.95 163.49 M417.95 163.49 C417.47 185.87, 405.81 193.5, 385.95 195.49 M417.95 163.49 C418.8 184.13, 405.96 197.15, 385.95 195.49 M385.95 195.49 C275.97 196.69, 167.16 197.82, 32 195.49 M385.95 195.49 C309.27 197.14, 231.72 196.88, 32 195.49 M32 195.49 C11.12 193.6, 0.44 184.01, 0 163.49 M32 195.49 C8.46 193.5, -1.33 185.24, 0 163.49 M0 163.49 C0.26 117.13, 1.94 67.4, 0 32 M0 163.49 C1.69 117.29, 1.72 71.25, 0 32 M0 32 C1.96 10.98, 10.15 1.75, 32 0 M0 32 C-1.02 12.13, 9.02 0.29, 32 0" stroke="#1971c2" stroke-width="1" fill="none"></path></g><g transform="translate(2638.243363217399 2187.6760002421456) rotate(0 139.35595703125 67.49999999999989)"><text x="0" y="0" font-family="Virgil, Segoe UI Emoji" font-size="36px" fill="#1e1e1e" text-anchor="start" style="white-space: pre;" direction="ltr" dominant-baseline="text-before-edge">: Person</text><text x="0" y="45" font-family="Virgil, Segoe UI Emoji" font-size="36px" fill="#1e1e1e" text-anchor="start" style="white-space: pre;" direction="ltr" dominant-baseline="text-before-edge">name = "William"</text><text x="0" y="90" font-family="Virgil, Segoe UI Emoji" font-size="36px" fill="#1e1e1e" text-anchor="start" style="white-space: pre;" direction="ltr" dominant-baseline="text-before-edge">birthdate = null</text></g><g stroke-linecap="round"><g transform="translate(2604.537457642431 2228.123086932107) rotate(0 209.81926220417358 0)"><path d="M0.6 1.05 C70.56 1.05, 349.45 -0.56, 419.33 -0.57 M-0.54 0.55 C69.27 0.77, 348.26 0.9, 418.22 0.67" stroke="#1e1e1e" stroke-width="1" fill="none"></path></g></g><mask></mask><g stroke-linecap="round"><g transform="translate(2532.2022000395823 2235.7937169670477) rotate(0 40.447086689961225 5.055885836245125)"><path d="M0.87 0.77 C14.59 2.49, 68.41 8.43, 81.92 10.17 M-0.13 0.12 C13.56 2.08, 67.87 10.19, 81.51 11.73" stroke="#f08c00" stroke-width="1" fill="none"></path></g><g transform="translate(2532.2022000395823 2235.7937169670477) rotate(0 40.447086689961225 5.055885836245125)"><path d="M53.48 19.87 C60.11 17.95, 69.57 15.34, 81.39 11.92 M52.15 17.38 C62.49 16.4, 72.03 12.79, 81.92 12.44" stroke="#f08c00" stroke-width="1" fill="none"></path></g><g transform="translate(2532.2022000395823 2235.7937169670477) rotate(0 40.447086689961225 5.055885836245125)"><path d="M56.2 -0.47 C62.07 3.04, 70.81 5.84, 81.39 11.92 M54.87 -2.96 C64.35 3.16, 72.94 6.66, 81.92 12.44" stroke="#f08c00" stroke-width="1" fill="none"></path></g></g><mask></mask><g stroke-linecap="round" transform="translate(3263.3849175665737 2548.995907207493) rotate(0 258.69282528787653 45.50297252620635)"><path d="M22.75 0 M22.75 0 C167.78 0.5, 312.05 -0.95, 494.63 0 M22.75 0 C164.83 1.07, 307.12 1.49, 494.63 0 M494.63 0 C508.71 -0.03, 517.09 8.54, 517.39 22.75 M494.63 0 C509.18 -0.97, 518.33 9.3, 517.39 22.75 M517.39 22.75 C517.12 30.88, 517.05 41.91, 517.39 68.25 M517.39 22.75 C517.89 41.01, 517.88 58.19, 517.39 68.25 M517.39 68.25 C519.16 82.52, 510.56 91.05, 494.63 91.01 M517.39 68.25 C515.13 82.39, 509.97 93.2, 494.63 91.01 M494.63 91.01 C312.33 90.96, 129.99 91.74, 22.75 91.01 M494.63 91.01 C335.76 92.14, 176.19 92.02, 22.75 91.01 M22.75 91.01 C9.08 90.73, -0.4 85.33, 0 68.25 M22.75 91.01 C8.8 92.05, 1.93 81.89, 0 68.25 M0 68.25 C0.73 56.58, -0.19 42.43, 0 22.75 M0 68.25 C-0.27 52.15, -0.58 34.36, 0 22.75 M0 22.75 C-0.67 5.64, 8.88 -1.24, 22.75 0 M0 22.75 C-0.93 7.6, 9.39 -0.45, 22.75 0" stroke="#1e1e1e" stroke-width="1" fill="none"></path></g><g stroke-linecap="round"><g transform="translate(3600.44397331625 2545.625316649996) rotate(0 -0.8426476393740359 48.03091544432891)"><path d="M1.01 -0.78 C0.55 15.21, -2.35 80.06, -2.62 96.08 M0.08 1.42 C-0.03 17.61, -0.25 81.81, -0.4 97.63" stroke="#1e1e1e" stroke-width="1" fill="none"></path></g></g><mask></mask><g stroke-linecap="round"><g transform="translate(3416.746787932677 2548.995907207493) rotate(0 0 42.132381968709524)"><path d="M-0.94 0.02 C-0.92 14.08, 1 69.59, 1.07 83.56 M0.77 -1.02 C0.63 13.25, 1.07 70.41, 0.69 84.73" stroke="#1e1e1e" stroke-width="1" fill="none"></path></g></g><mask></mask><g transform="translate(3302.146708977787 2505.178229960035) rotate(0 22.571990966796875 22.5)"><text x="0" y="0" font-family="Virgil, Segoe UI Emoji" font-size="36px" fill="#1e1e1e" text-anchor="start" style="white-space: pre;" direction="ltr" dominant-baseline="text-before-edge">112</text></g><g transform="translate(3494.270370755102 2499.290001632526) rotate(0 37.889984130859375 22.5)"><text x="0" y="0" font-family="Virgil, Segoe UI Emoji" font-size="36px" fill="#1e1e1e" text-anchor="start" style="white-space: pre;" direction="ltr" dominant-baseline="text-before-edge">223</text></g><g transform="translate(3662.799898629941 2501.807639402538) rotate(0 34.90198516845703 22.5)"><text x="0" y="0" font-family="Virgil, Segoe UI Emoji" font-size="36px" fill="#1e1e1e" text-anchor="start" style="white-space: pre;" direction="ltr" dominant-baseline="text-before-edge">345</text></g><g stroke-linecap="round" transform="translate(3336.0880480025608 2298.149642280738) rotate(0 31.17796265684501 49.71621072307721)"><path d="M15.59 0 M15.59 0 C27.59 0.46, 37.06 1.16, 46.77 0 M15.59 0 C27.21 0.4, 39.31 1.21, 46.77 0 M46.77 0 C55.61 0.4, 60.55 7.12, 62.36 15.59 M46.77 0 C55.03 -1.45, 63.02 5.27, 62.36 15.59 M62.36 15.59 C64.26 38, 62.14 58.62, 62.36 83.84 M62.36 15.59 C63.03 40.38, 62.65 63.25, 62.36 83.84 M62.36 83.84 C64.18 95.2, 56.16 100.96, 46.77 99.43 M62.36 83.84 C60.3 94.63, 54.98 98.47, 46.77 99.43 M46.77 99.43 C41.23 100.58, 32.09 100.26, 15.59 99.43 M46.77 99.43 C38.16 99.72, 29.93 100.16, 15.59 99.43 M15.59 99.43 C4.32 98.9, -1.19 93.7, 0 83.84 M15.59 99.43 C2.98 99.35, 1.69 92.62, 0 83.84 M0 83.84 C-1.41 56.47, 0.44 30.09, 0 15.59 M0 83.84 C1.03 60.85, 0.41 36.64, 0 15.59 M0 15.59 C-0.35 4.27, 4.77 1.89, 15.59 0 M0 15.59 C-0.56 3.44, 6.9 -0.02, 15.59 0" stroke="#1e1e1e" stroke-width="1" fill="none"></path></g><g stroke-linecap="round" transform="translate(3636.0706076197725 2217.255468900815) rotate(0 39.60443905058696 96.90447852803186)"><path d="M19.8 0 M19.8 0 C27.9 2.17, 37.96 1.09, 59.41 0 M19.8 0 C31.99 -0.33, 43.93 0.6, 59.41 0 M59.41 0 C71.23 1.77, 78.34 6.07, 79.21 19.8 M59.41 0 C71.24 -0.61, 76.99 6.51, 79.21 19.8 M79.21 19.8 C79.89 79.12, 77.32 133.84, 79.21 174.01 M79.21 19.8 C78.09 74.27, 79.19 128.69, 79.21 174.01 M79.21 174.01 C79.74 185.94, 72.25 192.88, 59.41 193.81 M79.21 174.01 C78.72 189.38, 72.05 192.05, 59.41 193.81 M59.41 193.81 C45.06 193.88, 31.49 193.07, 19.8 193.81 M59.41 193.81 C47.47 194.18, 33.95 193.63, 19.8 193.81 M19.8 193.81 C7.09 195.62, 1.15 186.88, 0 174.01 M19.8 193.81 C7.48 193.41, 1.04 186.73, 0 174.01 M0 174.01 C-1.01 137.31, -1.41 102.46, 0 19.8 M0 174.01 C0.05 137.36, 0.6 103.31, 0 19.8 M0 19.8 C-1.17 8.51, 6.16 -0.75, 19.8 0 M0 19.8 C-1.05 6.15, 5.34 -1.38, 19.8 0" stroke="#1e1e1e" stroke-width="1" fill="none"></path></g><g stroke-linecap="round" transform="translate(3466.6984321055597 2295.6216993626153) rotate(0 31.17796265684501 49.71621072307721)"><path d="M15.59 0 M15.59 0 C25.19 -0.04, 34.58 1.05, 46.77 0 M15.59 0 C26.15 0.98, 36.79 -0.09, 46.77 0 M46.77 0 C57.93 -0.34, 63.26 4.78, 62.36 15.59 M46.77 0 C55.56 -0.58, 60.64 3.59, 62.36 15.59 M62.36 15.59 C60.37 32.32, 59.93 49.04, 62.36 83.84 M62.36 15.59 C62.31 30.47, 62.67 43.07, 62.36 83.84 M62.36 83.84 C61.44 93.84, 56.06 98.23, 46.77 99.43 M62.36 83.84 C60.81 93.29, 55.17 100.08, 46.77 99.43 M46.77 99.43 C34.97 97.79, 22.66 101.04, 15.59 99.43 M46.77 99.43 C35.98 100.32, 26.85 100.2, 15.59 99.43 M15.59 99.43 C3.32 101.34, 0.13 93.16, 0 83.84 M15.59 99.43 C3.43 99.74, -0.13 94.04, 0 83.84 M0 83.84 C1.53 62.48, 0.84 43.76, 0 15.59 M0 83.84 C1 62.37, 1.04 39.29, 0 15.59 M0 15.59 C0.07 4.54, 4.07 -0.7, 15.59 0 M0 15.59 C1.82 3.49, 4.48 0.39, 15.59 0" stroke="#1e1e1e" stroke-width="1" fill="none"></path></g><g stroke-linecap="round"><g transform="translate(3637.7559028985206 2298.149642280738) rotate(0 39.60443905058719 -0.8426476393742632)"><path d="M-1.04 0.34 C12.49 0.25, 66.97 -0.7, 80.38 -0.98 M0.62 -0.53 C14.16 -0.92, 67.03 -2.24, 80.04 -2.73" stroke="#1e1e1e" stroke-width="1" fill="none"></path></g></g><mask></mask><g stroke-linecap="round" transform="translate(2658.0923736841446 2486.649839667963) rotate(0 97.5 72.72057081877438)"><path d="M32 0 M32 0 C60.06 -0.92, 87.37 0, 163 0 M32 0 C60.82 -0.2, 88.48 -0.7, 163 0 M163 0 C184.85 -1.67, 194.77 10.57, 195 32 M163 0 C185.88 1.92, 195.29 9.61, 195 32 M195 32 C193.72 60.24, 195.16 94.02, 195 113.44 M195 32 C195.9 52.19, 194.97 71.35, 195 113.44 M195 113.44 C195.57 135.56, 185.9 147.44, 163 145.44 M195 113.44 C195.55 133.55, 185.5 146.83, 163 145.44 M163 145.44 C112.4 144, 64.76 145.54, 32 145.44 M163 145.44 C124.49 144.91, 85.71 144.35, 32 145.44 M32 145.44 C10.29 144.92, -0.79 135.19, 0 113.44 M32 145.44 C10.8 147.44, 0.38 133.26, 0 113.44 M0 113.44 C-1.65 91.29, 0.26 72.85, 0 32 M0 113.44 C0.01 88.84, 0.74 64.5, 0 32 M0 32 C-0.91 11.97, 10.78 1.67, 32 0 M0 32 C1 10.72, 12.06 -1.49, 32 0" stroke="#1e1e1e" stroke-width="1" fill="none"></path></g><g stroke-linecap="round"><g transform="translate(2658.88349558297 2566.005764981653) rotate(0 98.03366656474759 -0.146158192280609)"><path d="M-0.83 -1.13 C32.06 -1.23, 163.82 -1.23, 196.9 -0.98 M0.93 0.9 C33.68 0.94, 163.11 0.49, 195.8 0.04" stroke="#1e1e1e" stroke-width="1" fill="none"></path></g></g><mask></mask><g transform="translate(2677.421743649202 2508.7057255042077) rotate(0 84.90597534179688 22.5)"><text x="0" y="0" font-family="Virgil, Segoe UI Emoji" font-size="36px" fill="#1e1e1e" text-anchor="start" style="white-space: pre;" direction="ltr" dominant-baseline="text-before-edge">: HashSet</text></g><g stroke-linecap="round" transform="translate(2289.803829537075 2530.6145641279377) rotate(0 112.9147836761415 37.0764961324644)"><path d="M124.55 0.47 C139.02 0.52, 155.37 2.29, 168.66 4.87 C181.95 7.46, 195.04 11.88, 204.3 15.99 C213.56 20.11, 221.13 24.62, 224.23 29.54 C227.32 34.46, 226.35 40.49, 222.87 45.53 C219.39 50.56, 212.34 55.96, 203.35 59.75 C194.37 63.55, 182.01 65.76, 168.95 68.27 C155.89 70.79, 140.27 74.01, 124.99 74.85 C109.72 75.69, 91.92 75, 77.31 73.31 C62.7 71.62, 48.52 68.37, 37.33 64.7 C26.14 61.03, 16.41 55.84, 10.18 51.28 C3.95 46.71, -0.08 42.07, -0.08 37.31 C-0.07 32.56, 3.79 27.33, 10.21 22.74 C16.63 18.14, 27.23 13.14, 38.46 9.73 C49.7 6.33, 60.95 3.65, 77.62 2.31 C94.29 0.97, 126.5 1.67, 138.49 1.68 C150.48 1.68, 150.21 1.91, 149.58 2.32 M119.96 -1.29 C134.56 -1.42, 151.34 2.52, 164.9 5.06 C178.46 7.6, 191.84 10.27, 201.32 13.96 C210.81 17.65, 218.04 22.3, 221.79 27.19 C225.53 32.08, 226.18 38.05, 223.8 43.29 C221.42 48.54, 215.76 54.67, 207.52 58.66 C199.29 62.66, 187.37 64.75, 174.39 67.24 C161.41 69.73, 144.89 72.9, 129.64 73.62 C114.39 74.34, 97.69 72.86, 82.88 71.58 C68.08 70.31, 52.4 68.93, 40.81 65.98 C29.22 63.03, 20.07 58.2, 13.36 53.89 C6.64 49.58, 1.41 45.09, 0.5 40.11 C-0.4 35.14, 2.23 28.75, 7.93 24.04 C13.63 19.33, 24.02 15.31, 34.71 11.87 C45.4 8.43, 57.98 5.16, 72.07 3.4 C86.16 1.64, 111.3 1.74, 119.24 1.31 C127.17 0.88, 119.65 0.58, 119.68 0.83" stroke="#f08c00" stroke-width="1" fill="none"></path></g><g transform="translate(2318.3626878995265 2544.096926357924) rotate(0 85.57196807861328 22.5)"><text x="0" y="0" font-family="Virgil, Segoe UI Emoji" font-size="36px" fill="#f08c00" text-anchor="start" style="white-space: pre;" direction="ltr" dominant-baseline="text-before-edge">personSet</text></g><g stroke-linecap="round"><g transform="translate(2497.0951488231262 2560.9498791454084) rotate(0 75.54686855504701 0.0424080373261404)"><path d="M-0.9 -0.37 C24.39 -0.29, 126.58 0.35, 151.99 0.68 M0.83 -1.61 C25.97 -1.44, 126.23 0.94, 151.21 1.7" stroke="#f08c00" stroke-width="1" fill="none"></path></g><g transform="translate(2497.0951488231262 2560.9498791454084) rotate(0 75.54686855504701 0.0424080373261404)"><path d="M122.14 11.74 C130.21 8.14, 140.91 6.66, 152.88 1.95 M123.6 10.91 C128.98 9.45, 138.04 6.04, 152.19 1.77" stroke="#f08c00" stroke-width="1" fill="none"></path></g><g transform="translate(2497.0951488231262 2560.9498791454084) rotate(0 75.54686855504701 0.0424080373261404)"><path d="M122.67 -8.78 C130.61 -5.79, 141.14 -0.68, 152.88 1.95 M124.14 -9.6 C129.52 -5.86, 138.45 -4.06, 152.19 1.77" stroke="#f08c00" stroke-width="1" fill="none"></path></g></g><mask></mask><g stroke-linecap="round"><g transform="translate(2805.2200351968204 2589.7057255042077) rotate(0 231.37768821816599 -2.318692421310516)"><path d="M0.58 1.03 C77.31 0.21, 384.32 -3.2, 461.02 -4.07 M-0.58 0.53 C76.48 -0.69, 386.04 -4.58, 463.34 -5.67" stroke="#1e1e1e" stroke-width="1" fill="none"></path></g><g transform="translate(2805.2200351968204 2589.7057255042077) rotate(0 231.37768821816599 -2.318692421310516)"><path d="M437 3.71 C446.72 -0.53, 456.42 -1.76, 462.56 -6.43 M434.77 5.57 C442.16 3.34, 447.66 0.14, 463.17 -5.32" stroke="#1e1e1e" stroke-width="1" fill="none"></path></g><g transform="translate(2805.2200351968204 2589.7057255042077) rotate(0 231.37768821816599 -2.318692421310516)"><path d="M436.73 -16.81 C446.69 -13.83, 456.49 -7.86, 462.56 -6.43 M434.5 -14.95 C441.89 -12.4, 447.45 -10.82, 463.17 -5.32" stroke="#1e1e1e" stroke-width="1" fill="none"></path></g></g><mask></mask><g stroke-linecap="round"><g transform="translate(3373.1645441350247 2562.741001044234) rotate(0 -0.8426476393740359 -81.73682101929649)"><path d="M-0.33 1.19 C-0.72 -26.31, -1.42 -136.51, -1.48 -164.12 M1.69 0.77 C1.1 -26.67, -1.88 -135.51, -2.33 -162.92" stroke="#1e1e1e" stroke-width="1" fill="none"></path></g><g transform="translate(3373.1645441350247 2562.741001044234) rotate(0 -0.8426476393740359 -81.73682101929649)"><path d="M10.55 -134.63 C3.27 -143.71, -1.32 -155.46, -2.68 -163.63 M8.51 -134.83 C4.34 -143.68, 1.38 -150.7, -1.59 -162.93" stroke="#1e1e1e" stroke-width="1" fill="none"></path></g><g transform="translate(3373.1645441350247 2562.741001044234) rotate(0 -0.8426476393740359 -81.73682101929649)"><path d="M-9.96 -134.16 C-9.69 -143.36, -6.72 -155.28, -2.68 -163.63 M-12.01 -134.37 C-10.44 -143.19, -7.67 -150.34, -1.59 -162.93" stroke="#1e1e1e" stroke-width="1" fill="none"></path></g></g><mask></mask><g stroke-linecap="round"><g transform="translate(3459.1146033511923 2571.167477437976) rotate(0 15.167657508735374 -84.26476393741905)"><path d="M-0.14 -0.55 C4.91 -28.48, 24.89 -140.67, 30.08 -168.61 M-1.67 1.77 C3.21 -25.87, 23.63 -139.04, 29 -167.12" stroke="#1e1e1e" stroke-width="1" fill="none"></path></g><g transform="translate(3459.1146033511923 2571.167477437976) rotate(0 15.167657508735374 -84.26476393741905)"><path d="M33.04 -137.96 C32.67 -144.84, 31.96 -154.94, 28.79 -167.56 M33.9 -137.09 C32.68 -147.52, 31.14 -158.82, 29.18 -167.57" stroke="#1e1e1e" stroke-width="1" fill="none"></path></g><g transform="translate(3459.1146033511923 2571.167477437976) rotate(0 15.167657508735374 -84.26476393741905)"><path d="M12.86 -141.69 C18.18 -147.49, 23.19 -156.53, 28.79 -167.56 M13.72 -140.82 C19.54 -149.98, 25.05 -159.98, 29.18 -167.57" stroke="#1e1e1e" stroke-width="1" fill="none"></path></g></g><mask></mask><g stroke-linecap="round"><g transform="translate(3632.700017062276 2571.167477437976) rotate(0 16.852952787483673 -80.05152574054819)"><path d="M-0.95 0.02 C4.49 -26.52, 27.85 -133.55, 33.47 -160.17 M0.75 -1.02 C5.94 -27.27, 26.66 -131.86, 32.39 -158.66" stroke="#1e1e1e" stroke-width="1" fill="none"></path></g><g transform="translate(3632.700017062276 2571.167477437976) rotate(0 16.852952787483673 -80.05152574054819)"><path d="M36.81 -129.39 C35.28 -141.58, 34.42 -152.59, 33.09 -157.58 M37.42 -128.13 C36.03 -136.6, 35 -144.16, 32.65 -158.79" stroke="#1e1e1e" stroke-width="1" fill="none"></path></g><g transform="translate(3632.700017062276 2571.167477437976) rotate(0 16.852952787483673 -80.05152574054819)"><path d="M16.71 -133.51 C22.6 -144.01, 29.19 -153.5, 33.09 -157.58 M17.32 -132.25 C21.01 -139.52, 25.05 -146.03, 32.65 -158.79" stroke="#1e1e1e" stroke-width="1" fill="none"></path></g></g><mask></mask><g stroke-linecap="round"><g transform="translate(3363.0527724625344 2333.5408431344536) rotate(0 133.13832702112222 -160.10305148109614)"><path d="M0.28 -0.92 C44.89 -54.37, 222.97 -268.07, 267.23 -321.32 M-1.03 1.21 C43.54 -52.08, 222.47 -266.97, 266.79 -320.37" stroke="#1e1e1e" stroke-width="1" fill="none"></path></g><g transform="translate(3363.0527724625344 2333.5408431344536) rotate(0 133.13832702112222 -160.10305148109614)"><path d="M255.11 -290.54 C257.64 -300.41, 261.88 -305.83, 266.92 -319.23 M256.61 -291.84 C258.41 -298.83, 262.21 -305.77, 267.16 -319.39" stroke="#1e1e1e" stroke-width="1" fill="none"></path></g><g transform="translate(3363.0527724625344 2333.5408431344536) rotate(0 133.13832702112222 -160.10305148109614)"><path d="M239.34 -303.66 C246 -310.07, 254.44 -312, 266.92 -319.23 M240.83 -304.96 C246.61 -308.61, 254.3 -312.31, 267.16 -319.39" stroke="#1e1e1e" stroke-width="1" fill="none"></path></g></g><mask></mask><g stroke-linecap="round"><g transform="translate(3506.3028711561474 2326.7996620194604) rotate(0 -152.51922272672869 -162.6309943992187)"><path d="M0.58 0.62 C-50.23 -53.89, -253.47 -271.75, -304.27 -325.91 M-0.58 -0.1 C-51.53 -53.96, -254.15 -270.36, -304.82 -324.71" stroke="#1e1e1e" stroke-width="1" fill="none"></path></g><g transform="translate(3506.3028711561474 2326.7996620194604) rotate(0 -152.51922272672869 -162.6309943992187)"><path d="M-277.03 -309.85 C-288.58 -314.35, -295.23 -322.09, -306.79 -322.75 M-278.81 -311.5 C-286.66 -315.59, -296.45 -320.41, -305.13 -324.57" stroke="#1e1e1e" stroke-width="1" fill="none"></path></g><g transform="translate(3506.3028711561474 2326.7996620194604) rotate(0 -152.51922272672869 -162.6309943992187)"><path d="M-292.02 -295.83 C-298.5 -305.28, -299.94 -317.89, -306.79 -322.75 M-293.8 -297.49 C-296.68 -306.09, -301.53 -315.52, -305.13 -324.57" stroke="#1e1e1e" stroke-width="1" fill="none"></path></g></g><mask></mask><g stroke-linecap="round"><g transform="translate(3696.7412376547145 2254.3319650332796) rotate(0 284.8149021084762 -120.49861243050918)"><path d="M0.02 -0.7 C95.26 -40.66, 475.93 -200.23, 570.73 -240.15 M-1.43 1.54 C93.82 -38.72, 474.9 -201.21, 570.36 -241.83" stroke="#1e1e1e" stroke-width="1" fill="none"></path></g><g transform="translate(3696.7412376547145 2254.3319650332796) rotate(0 284.8149021084762 -120.49861243050918)"><path d="M547.27 -219.51 C555.19 -227.6, 560.35 -232.28, 568.93 -240.98 M547.96 -221.08 C554.25 -227.57, 561.16 -234.17, 570.16 -242.37" stroke="#1e1e1e" stroke-width="1" fill="none"></path></g><g transform="translate(3696.7412376547145 2254.3319650332796) rotate(0 284.8149021084762 -120.49861243050918)"><path d="M539.22 -238.39 C549.02 -241.94, 556.11 -242.09, 568.93 -240.98 M539.92 -239.96 C548.53 -240.67, 557.87 -241.56, 570.16 -242.37" stroke="#1e1e1e" stroke-width="1" fill="none"></path></g></g><mask></mask><g stroke-linecap="round"><g transform="translate(3686.6294659822242 2363.876158151925) rotate(0 491.26357375515295 -176.95600426858027)"><path d="M-0.64 0.5 C162.99 -58.2, 817.39 -293.67, 981.43 -352.82 M1.22 -0.29 C165.25 -59.24, 819.87 -295.53, 983.56 -354.37" stroke="#1e1e1e" stroke-width="1" fill="none"></path></g><g transform="translate(3686.6294659822242 2363.876158151925) rotate(0 491.26357375515295 -176.95600426858027)"><path d="M961.34 -337 C968.59 -338.43, 972.1 -343.6, 982.04 -352.8 M959.77 -335.62 C966.18 -339.47, 972.16 -344.47, 982.56 -353.8" stroke="#1e1e1e" stroke-width="1" fill="none"></path></g><g transform="translate(3686.6294659822242 2363.876158151925) rotate(0 491.26357375515295 -176.95600426858027)"><path d="M954.38 -356.3 C963.39 -352.55, 968.75 -352.55, 982.04 -352.8 M952.81 -354.93 C960.67 -354.26, 968.27 -354.78, 982.56 -353.8" stroke="#1e1e1e" stroke-width="1" fill="none"></path></g></g><mask></mask><g transform="translate(3014.1966497616195 2026.8171024022472) rotate(0 60.137977600097656 22.5)"><text x="0" y="0" font-family="Virgil, Segoe UI Emoji" font-size="36px" fill="#e03131" text-anchor="start" style="white-space: pre;" direction="ltr" dominant-baseline="text-before-edge">h: 223</text></g><g transform="translate(3650.0856222846032 2019.3377126984674) rotate(0 44.819984436035156 22.5)"><text x="0" y="0" font-family="Virgil, Segoe UI Emoji" font-size="36px" fill="#e03131" text-anchor="start" style="white-space: pre;" direction="ltr" dominant-baseline="text-before-edge">h: 112</text></g><g transform="translate(4282.071351815248 2024.5406457472286) rotate(0 57.14997863769531 22.5)"><text x="0" y="0" font-family="Virgil, Segoe UI Emoji" font-size="36px" fill="#e03131" text-anchor="start" style="white-space: pre;" direction="ltr" dominant-baseline="text-before-edge">h: 345</text></g><g transform="translate(4716.8775337323295 2019.3377126984665) rotate(0 57.14997863769531 22.5)"><text x="0" y="0" font-family="Virgil, Segoe UI Emoji" font-size="36px" fill="#e03131" text-anchor="start" style="white-space: pre;" direction="ltr" dominant-baseline="text-before-edge">h: 345</text></g><g transform="translate(2649.020226708065 2370.0261778906474) rotate(0 125.44195556640625 22.5)"><text x="0" y="0" font-family="Virgil, Segoe UI Emoji" font-size="36px" fill="#e03131" text-anchor="start" style="white-space: pre;" direction="ltr" dominant-baseline="text-before-edge">h: 456 -&gt; 345</text></g><g stroke-linecap="round" transform="translate(97.72615188477369 2761.770566786368) rotate(0 196.58412605205757 201.3068678190741)"><path d="M32 0 M32 0 C154.93 -1.32, 274.91 -0.23, 361.17 0 M32 0 C124.15 -2.04, 215.63 -1.62, 361.17 0 M361.17 0 C384.17 -0.39, 391.23 11.38, 393.17 32 M361.17 0 C382.83 -1.82, 391.99 8.82, 393.17 32 M393.17 32 C394.94 157.49, 393.92 283.23, 393.17 370.61 M393.17 32 C392.27 142.15, 392.39 252.65, 393.17 370.61 M393.17 370.61 C394.91 391.38, 381.78 401.92, 361.17 402.61 M393.17 370.61 C393.57 390.94, 382.38 402.82, 361.17 402.61 M361.17 402.61 C259.05 402.69, 157.02 402.69, 32 402.61 M361.17 402.61 C236.7 402.93, 113.03 402.32, 32 402.61 M32 402.61 C10.15 404.26, 0.45 391.5, 0 370.61 M32 402.61 C10.29 402.28, -0.04 392.49, 0 370.61 M0 370.61 C-3.02 268.37, -2.69 163.38, 0 32 M0 370.61 C1.83 299.01, 2.36 227.93, 0 32 M0 32 C-0.34 12.62, 10.11 -1.27, 32 0 M0 32 C-1.83 11.63, 11.57 -1.03, 32 0" stroke="#1e1e1e" stroke-width="1" fill="none"></path></g><g transform="translate(160.30248029774094 2785.38427562145) rotate(0 154.33193969726562 112.5)"><text x="0" y="0" font-family="Virgil, Segoe UI Emoji" font-size="36px" fill="#1e1e1e" text-anchor="start" style="white-space: pre;" direction="ltr" dominant-baseline="text-before-edge">Movie</text><text x="0" y="45" font-family="Virgil, Segoe UI Emoji" font-size="36px" fill="#1e1e1e" text-anchor="start" style="white-space: pre;" direction="ltr" dominant-baseline="text-before-edge">title: String</text><text x="0" y="90" font-family="Virgil, Segoe UI Emoji" font-size="36px" fill="#1e1e1e" text-anchor="start" style="white-space: pre;" direction="ltr" dominant-baseline="text-before-edge">year: int</text><text x="0" y="135" font-family="Virgil, Segoe UI Emoji" font-size="36px" fill="#1e1e1e" text-anchor="start" style="white-space: pre;" direction="ltr" dominant-baseline="text-before-edge">duration: Integer</text><text x="0" y="180" font-family="Virgil, Segoe UI Emoji" font-size="36px" fill="#1e1e1e" text-anchor="start" style="white-space: pre;" direction="ltr" dominant-baseline="text-before-edge">genres: [*] String</text></g><g stroke-linecap="round"><g transform="translate(95.36478100126544 2824.346895199335) rotate(0 199.13423112265815 -0.04553432352827258)"><path d="M-0.82 0.92 C65.63 0.62, 332.31 -1.01, 399.09 -1.01 M0.95 0.36 C67.21 0.1, 331.72 0.22, 398.15 0" stroke="#1e1e1e" stroke-width="1" fill="none"></path></g></g><mask></mask><g stroke-linecap="round"><g transform="translate(98.90683732652775 3042.773701923844) rotate(0 195.69345936425273 -0.13467827051272252)"><path d="M0.14 0.85 C65.52 0.99, 327.39 0.68, 392.63 0.63 M-1.24 0.25 C64 0.06, 326.71 -0.87, 392.02 -1.15" stroke="#1e1e1e" stroke-width="1" fill="none"></path></g></g><mask></mask><g stroke-linecap="round" transform="translate(971.8349873165923 2756.457482298474) rotate(0 236.7274310716968 126.33334226768875)"><path d="M32 0 M32 0 C174.29 2.22, 318.71 1.4, 441.45 0 M32 0 C158.94 2.48, 285.65 1.68, 441.45 0 M441.45 0 C462.72 0.41, 475.32 10.16, 473.45 32 M441.45 0 C462.53 -1.9, 471.63 11.57, 473.45 32 M473.45 32 C475.68 81.72, 474.12 129.62, 473.45 220.67 M473.45 32 C473.85 71.28, 474.09 112.03, 473.45 220.67 M473.45 220.67 C474.49 240.11, 461.12 251.22, 441.45 252.67 M473.45 220.67 C472.61 242.29, 460.73 250.74, 441.45 252.67 M441.45 252.67 C342.96 254.89, 245.54 255.27, 32 252.67 M441.45 252.67 C335.95 254.04, 230.41 254.6, 32 252.67 M32 252.67 C11.16 253.25, -0.83 243.95, 0 220.67 M32 252.67 C9.07 252.17, 0.41 241.21, 0 220.67 M0 220.67 C-0.34 146.59, 1.52 72.31, 0 32 M0 220.67 C0.08 163.79, -0.12 106.4, 0 32 M0 32 C-1.76 12.37, 10.9 -0.69, 32 0 M0 32 C0.86 12.4, 10.73 -1.9, 32 0" stroke="#1e1e1e" stroke-width="1" fill="none"></path></g><g transform="translate(1034.4113157295596 2780.0711911335566) rotate(0 188.0999298095703 67.5)"><text x="0" y="0" font-family="Virgil, Segoe UI Emoji" font-size="36px" fill="#1e1e1e" text-anchor="start" style="white-space: pre;" direction="ltr" dominant-baseline="text-before-edge">Person</text><text x="0" y="45" font-family="Virgil, Segoe UI Emoji" font-size="36px" fill="#1e1e1e" text-anchor="start" style="white-space: pre;" direction="ltr" dominant-baseline="text-before-edge">name: String</text><text x="0" y="90" font-family="Virgil, Segoe UI Emoji" font-size="36px" fill="#1e1e1e" text-anchor="start" style="white-space: pre;" direction="ltr" dominant-baseline="text-before-edge">birthdate: LocalDate</text></g><g stroke-linecap="round"><g transform="translate(969.4736164330841 2819.033810711441) rotate(0 236.53759652512866 -0.5074823261329584)"><path d="M0.24 0.11 C79.08 -0.12, 394.98 -1.24, 474.17 -1.12 M-1.09 -0.88 C77.45 -1.02, 393.62 -0.13, 472.98 -0.16" stroke="#1e1e1e" stroke-width="1" fill="none"></path></g></g><mask></mask><g stroke-linecap="round"><g transform="translate(969.473616433084 2940.6444112121144) rotate(0 236.28132104599723 -2.334406160357048)"><path d="M-0.47 -1.12 C78.33 -1.78, 394.07 -3.14, 473.03 -3.89 M1.49 0.91 C80.17 -0.1, 393.89 -4.63, 472.48 -5.58" stroke="#1e1e1e" stroke-width="1" fill="none"></path></g></g><mask></mask><g stroke-linecap="round"><g transform="translate(492.075089430643 2860.9481438937123) rotate(0 239.4733695298024 -35.63117311321366)"><path d="M-1.09 1.14 C32.84 -10.08, 122.42 -57.64, 202.6 -68.45 C282.79 -79.26, 433.78 -64.54, 480.03 -63.7 M0.54 0.69 C34.35 -10.33, 121.66 -57.01, 201.41 -67.52 C281.15 -78.03, 432.55 -63.24, 479 -62.36" stroke="#1e1e1e" stroke-width="1" fill="none"></path></g><g transform="translate(492.075089430643 2860.9481438937123) rotate(0 239.4733695298024 -35.63117311321366)"><path d="M452.2 -54.41 C454.8 -56.13, 463.14 -57.93, 479.5 -63.92 M450.21 -53.13 C460.93 -56.48, 472.68 -61.34, 479.77 -62.37" stroke="#1e1e1e" stroke-width="1" fill="none"></path></g><g transform="translate(492.075089430643 2860.9481438937123) rotate(0 239.4733695298024 -35.63117311321366)"><path d="M453.29 -74.9 C455.46 -72.11, 463.56 -69.39, 479.5 -63.92 M451.3 -73.62 C461.7 -68.8, 473.02 -65.48, 479.77 -62.37" stroke="#1e1e1e" stroke-width="1" fill="none"></path></g></g><mask></mask><g stroke-linecap="round"><g transform="translate(495.61714575590526 3027.4247911810403) rotate(0 234.81009767254747 -44.58128663792627)"><path d="M-0.22 -0.48 C30.64 -10.37, 105.98 -44.32, 184.18 -59.02 C262.38 -73.72, 421.5 -83.72, 469 -88.68 M-1.79 -1.78 C28.99 -12, 104.36 -46.25, 183.23 -60.52 C262.1 -74.79, 423.78 -82.89, 471.42 -87.43" stroke="#1e1e1e" stroke-width="1" fill="none"></path></g><g transform="translate(495.61714575590526 3027.4247911810403) rotate(0 234.81009767254747 -44.58128663792627)"><path d="M443.26 -75.1 C452.05 -79.28, 455.88 -81.72, 471.05 -87.36 M444.29 -75.6 C452.62 -79.32, 462.22 -83.33, 472.39 -87.92" stroke="#1e1e1e" stroke-width="1" fill="none"></path></g><g transform="translate(495.61714575590526 3027.4247911810403) rotate(0 234.81009767254747 -44.58128663792627)"><path d="M441.73 -95.57 C450.91 -95.23, 455.07 -93.16, 471.05 -87.36 M442.76 -96.06 C451.42 -92.88, 461.54 -89.98, 472.39 -87.92" stroke="#1e1e1e" stroke-width="1" fill="none"></path></g></g><mask></mask><g transform="translate(897.0501959522993 2821.0820971070566) rotate(0 21.097991943359375 17.5)"><text x="0" y="0" font-family="Virgil, Segoe UI Emoji" font-size="28px" fill="#1e1e1e" text-anchor="start" style="white-space: pre;" direction="ltr" dominant-baseline="text-before-edge">0..1</text></g><g transform="translate(845.1249567965286 2755.8671395775973) rotate(0 53.423973083496094 17.5)"><text x="0" y="0" font-family="Virgil, Segoe UI Emoji" font-size="28px" fill="#1e1e1e" text-anchor="start" style="white-space: pre;" direction="ltr" dominant-baseline="text-before-edge">director</text></g><g transform="translate(871.0034637238892 2906.078988772647) rotate(0 45.65398406982422 17.5)"><text x="0" y="0" font-family="Virgil, Segoe UI Emoji" font-size="28px" fill="#1e1e1e" text-anchor="start" style="white-space: pre;" direction="ltr" dominant-baseline="text-before-edge">actors</text></g><g transform="translate(916.3011147517431 2958.9621716031556) rotate(0 7.2239990234375 17.5)"><text x="0" y="0" font-family="Virgil, Segoe UI Emoji" font-size="28px" fill="#1e1e1e" text-anchor="start" style="white-space: pre;" direction="ltr" dominant-baseline="text-before-edge">*</text></g><g stroke-linecap="round" transform="translate(638.4800842081514 3054.677129132614) rotate(0 97.99689166559028 79.10592459752479)"><path d="M32 0 M32 0 C59.24 0.27, 85.39 0.73, 163.99 0 M32 0 C60.67 -2.13, 91 -1.05, 163.99 0 M163.99 0 C185.47 -0.6, 195.16 11.51, 195.99 32 M163.99 0 C186.25 -1.82, 196.5 8.75, 195.99 32 M195.99 32 C195.2 69.5, 194.71 105.15, 195.99 126.21 M195.99 32 C195.51 63.09, 196.68 93.38, 195.99 126.21 M195.99 126.21 C194.29 148.44, 185.69 156.55, 163.99 158.21 M195.99 126.21 C194.34 147.51, 184.1 159.29, 163.99 158.21 M163.99 158.21 C137.95 158.82, 108.44 158.53, 32 158.21 M163.99 158.21 C127.84 158.56, 92.62 158.25, 32 158.21 M32 158.21 C12.47 158.35, 0.33 147.7, 0 126.21 M32 158.21 C9.67 158.59, -1.87 147.84, 0 126.21 M0 126.21 C-1.41 92.34, 0.5 59.69, 0 32 M0 126.21 C1.07 104.77, -0.04 83.19, 0 32 M0 32 C-1.34 9.86, 9.85 1.07, 32 0 M0 32 C-1.64 10.82, 11.33 -2.26, 32 0" stroke="#f08c00" stroke-width="1" fill="none"></path></g><g transform="translate(665.6358493684958 3070.0260398754176) rotate(0 28.839988708496094 17.5)"><text x="0" y="0" font-family="Virgil, Segoe UI Emoji" font-size="28px" fill="#f08c00" text-anchor="start" style="white-space: pre;" direction="ltr" dominant-baseline="text-before-edge">Play</text></g><g stroke-linecap="round"><g transform="translate(637.2993987663973 3118.4341429873357) rotate(0 99.46934415471753 -1.116445426083601)"><path d="M0.86 0.24 C34.01 -0.29, 165.86 -2.12, 199.09 -2.47 M-0.15 -0.68 C32.79 -1.08, 164.58 -0.45, 197.91 -0.99" stroke="#f08c00" stroke-width="1" fill="none"></path></g></g><mask></mask><g stroke-linecap="round"><g transform="translate(731.7542341067252 2961.4029792340402) rotate(0 0.24703819043935482 46.4079083677118)"><path d="M-0.01 -0.78 C0.04 14.95, 0.37 77.6, 0.51 93.6" stroke="#f08c00" stroke-width="4.5" fill="none" stroke-dasharray="1.5 10"></path></g></g><mask></mask><g transform="translate(657.3710512762169 3144.409222705926) rotate(0 74.56395721435547 17.5)"><text x="0" y="0" font-family="Virgil, Segoe UI Emoji" font-size="28px" fill="#f08c00" text-anchor="start" style="white-space: pre;" direction="ltr" dominant-baseline="text-before-edge">role: String</text></g><g stroke-linecap="round"><g transform="translate(636.633800694811 3186.45401562219) rotate(0 99.87765248477473 -1.0756209531791683)"><path d="M-0.55 0.02 C33.02 -0.28, 166.97 -1.83, 200.31 -2.18 M1.36 -1.01 C34.94 -1.06, 166.87 -0.62, 199.77 -0.54" stroke="#f08c00" stroke-width="1" fill="none"></path></g></g><mask></mask></svg>